<svg width="35" height="26" viewBox="0 0 35 26" fill="none" xmlns="http://www.w3.org/2000/svg">
<path d="M34.1244 21.9374H0.875137C0.39171 21.9374 0.000155452 22.315 0.000155452 22.7812V24.4686C0.000155452 24.9348 0.39171 25.3123 0.875137 25.3123H34.1244C34.6079 25.3123 34.9994 24.9348 34.9994 24.4686V22.7812C34.9994 22.315 34.6079 21.9374 34.1244 21.9374ZM4.40514 16.3092C4.74857 16.6699 5.23091 16.8745 5.73566 16.874L12.8744 16.8645C13.4378 16.8638 13.9931 16.7351 14.4953 16.489L30.4069 8.70295C31.8692 7.98736 33.18 6.96592 34.0719 5.62808C35.0733 4.12623 35.1821 3.0394 34.7867 2.2716C34.3924 1.50328 33.4338 0.939032 31.6012 0.824074C29.9688 0.721771 28.3452 1.13625 26.8829 1.85132L21.4957 4.48745L9.53582 0.160162C9.39202 0.066749 9.22495 0.0120705 9.0519 0.00177983C8.87884 -0.00851085 8.70607 0.0259599 8.55146 0.101628L4.95583 1.86134C4.37233 2.14662 4.23124 2.89755 4.6731 3.36582L13.2162 8.53895L7.57203 11.3011L3.61547 9.37794C3.47916 9.31167 3.32859 9.27723 3.17594 9.27742C3.02328 9.2776 2.8728 9.31239 2.73666 9.37899L0.542097 10.4532C-0.0288283 10.7327 -0.179216 11.4614 0.237494 11.9339L4.40514 16.3092Z" fill="#FF6828"/>
</svg>
