<svg width="65" height="65" viewBox="0 0 65 65" fill="none" xmlns="http://www.w3.org/2000/svg">
<path d="M32.5 0C14.5525 0 0 14.5525 0 32.5C0 50.4475 14.5525 65 32.5 65C50.4475 65 65 50.4475 65 32.5C65 14.5525 50.4475 0 32.5 0ZM48.1189 24.4983C48.1406 24.8393 48.1406 25.1948 48.1406 25.543C48.1406 36.1925 40.0301 48.4598 25.2093 48.4598C20.639 48.4598 16.4023 47.1323 12.8331 44.8471C13.486 44.9196 14.1099 44.9487 14.7773 44.9487C18.5497 44.9487 22.0173 43.6719 24.7812 41.51C21.2411 41.4375 18.2667 39.1161 17.2511 35.9241C18.4916 36.1055 19.6088 36.1055 20.8856 35.779C19.0627 35.4087 17.4243 34.4187 16.2487 32.9772C15.073 31.5358 14.4327 29.7317 14.4364 27.8717V27.7701C15.5028 28.3722 16.7578 28.7422 18.0709 28.793C16.967 28.0573 16.0618 27.0607 15.4354 25.8914C14.809 24.7221 14.4808 23.4163 14.4799 22.0898C14.4799 20.5882 14.8717 19.2171 15.5753 18.0273C17.5986 20.5181 20.1234 22.5552 22.9855 24.0062C25.8476 25.4573 28.9831 26.2898 32.1881 26.4498C31.0491 20.9727 35.1406 16.5402 40.0592 16.5402C42.3806 16.5402 44.4699 17.5123 45.9425 19.0792C47.7634 18.7383 49.5045 18.0564 51.0569 17.1423C50.4548 19.0067 49.1925 20.5809 47.5167 21.5748C49.1417 21.4007 50.7087 20.9509 52.1596 20.3198C51.0642 21.9302 49.6931 23.3594 48.1189 24.4983Z" fill="#FF6828"/>
</svg>
