<svg width="1190" height="50" viewBox="0 0 1190 50" fill="none" xmlns="http://www.w3.org/2000/svg">
<path d="M37.4998 14.5833H39.5832M4.1665 22.9167L5.81234 28.3C6.07289 29.1534 6.60055 29.9007 7.31763 30.4317C8.03472 30.9628 8.90335 31.2496 9.79567 31.25H12.4998M45.8332 22.9167L44.1873 28.3C43.9268 29.1534 43.3991 29.9007 42.682 30.4317C41.965 30.9628 41.0963 31.2496 40.204 31.25H37.4998M19.7915 30.2083C19.7915 30.2083 19.7915 44.7917 12.4998 44.7917M30.2082 30.2083C30.2082 30.2083 30.2082 44.7917 37.4998 44.7917M24.9998 30.2083V44.7917M45.8332 7.5V22.9167H4.1665V7.5C4.1665 7.16848 4.2982 6.85054 4.53262 6.61612C4.76704 6.3817 5.08498 6.25 5.4165 6.25H44.5832C44.9147 6.25 45.2326 6.3817 45.4671 6.61612C45.7015 6.85054 45.8332 7.16848 45.8332 7.5V7.5Z" stroke="#FF5D24" stroke-width="2.5" stroke-linecap="round" stroke-linejoin="round"/>
<mask id="mask0_136_72" style="mask-type:alpha" maskUnits="userSpaceOnUse" x="196" y="2" width="38" height="46">
<path d="M204.583 4.16669V45.8334M198.333 5.20835V15.625C198.333 20.8334 204.583 20.8334 204.583 20.8334C204.583 20.8334 210.833 20.8334 210.833 15.625V5.20835M225.416 20.8334V45.8334" stroke="white" stroke-width="3.33333" stroke-linecap="round" stroke-linejoin="round"/>
<path d="M231.666 12.5C231.666 17.1021 228.868 20.8334 225.416 20.8334C221.964 20.8334 219.166 17.1021 219.166 12.5C219.166 7.89794 221.964 4.16669 225.416 4.16669C228.868 4.16669 231.666 7.89794 231.666 12.5Z" fill="white" stroke="white" stroke-width="3.33333" stroke-linecap="round" stroke-linejoin="round"/>
</mask>
<g mask="url(#mask0_136_72)">
<path d="M190 0H240V50H190V0Z" fill="#FF5D24"/>
</g>
<path d="M428.75 40.625H427.5C425.466 40.625 423.922 39.8027 423.118 38.877C422.423 38.0752 421.582 37.5 420.636 37.5H419.362C418.416 37.5 417.576 38.0752 416.88 38.877C416.078 39.8027 414.534 40.625 412.5 40.625C410.466 40.625 408.922 39.8027 408.118 38.877C407.423 38.0752 406.582 37.5 405.636 37.5H404.362C403.416 37.5 402.576 38.0752 401.88 38.877C401.078 39.8027 399.534 40.625 397.5 40.625C395.466 40.625 393.922 39.8027 393.118 38.877C392.423 38.0752 391.582 37.5 390.636 37.5H389.362C388.416 37.5 387.576 38.0752 386.88 38.877C386.078 39.8027 384.534 40.625 382.5 40.625H381.25C380.559 40.625 380 41.3242 380 42.1875V45.3125C380 46.1758 380.559 46.875 381.25 46.875H382.5C385.517 46.875 388.181 45.6846 390 43.7656C391.819 45.6855 394.483 46.875 397.5 46.875C400.517 46.875 403.181 45.6846 405 43.7656C406.819 45.6855 409.483 46.875 412.5 46.875C415.517 46.875 418.181 45.6846 420 43.7656C421.819 45.6855 424.483 46.875 427.5 46.875H428.75C429.441 46.875 430 46.1758 430 45.3125V42.1875C430 41.3242 429.441 40.625 428.75 40.625ZM397.5 37.5V28.125H412.5V37.5C413.994 37.5 414.911 36.8984 415.187 36.5801C415.903 35.7539 416.687 35.1797 417.5 34.8154V12.5C417.5 10.7773 418.622 9.375 420 9.375C421.378 9.375 422.5 10.7773 422.5 12.5V14.0625C422.5 14.9258 423.059 15.625 423.75 15.625H426.25C426.941 15.625 427.5 14.9258 427.5 14.0625V12.5C427.5 7.33008 424.136 3.125 420 3.125C415.864 3.125 412.5 7.33008 412.5 12.5V21.875H397.5V12.5C397.5 10.7773 398.622 9.375 400 9.375C401.378 9.375 402.5 10.7773 402.5 12.5V14.0625C402.5 14.9258 403.059 15.625 403.75 15.625H406.25C406.941 15.625 407.5 14.9258 407.5 14.0625V12.5C407.5 7.33008 404.136 3.125 400 3.125C395.864 3.125 392.5 7.33008 392.5 12.5V34.8145C393.313 35.1787 394.097 35.7539 394.813 36.5791C395.089 36.8984 396.006 37.5 397.5 37.5Z" fill="#FF5D24"/>
<path d="M595 3.125C582.92 3.125 573.125 12.9199 573.125 25C573.125 37.0801 582.92 46.875 595 46.875C607.08 46.875 616.875 37.0801 616.875 25C616.875 12.9199 607.08 3.125 595 3.125ZM603.618 31.7236L602.222 33.6279C602.191 33.6694 602.153 33.7044 602.109 33.7311C602.065 33.7577 602.016 33.7754 601.965 33.7831C601.915 33.7908 601.863 33.7884 601.813 33.776C601.763 33.7636 601.716 33.7415 601.675 33.7109L593.599 27.8223C593.548 27.7861 593.507 27.7384 593.479 27.6832C593.451 27.628 593.437 27.5668 593.438 27.5049V14.0625C593.438 13.8477 593.613 13.6719 593.828 13.6719H596.177C596.392 13.6719 596.567 13.8477 596.567 14.0625V26.1475L603.53 31.1816C603.706 31.3037 603.745 31.5479 603.618 31.7236Z" fill="#FF5D24"/>
<path d="M786.561 15.0555H782.209V23.5789H786.561C788.961 23.5789 790.914 21.6672 790.914 19.3172C790.914 16.9664 788.961 15.0555 786.561 15.0555Z" fill="#FF5D24"/>
<path d="M800.625 1.5625H769.375C765.059 1.5625 761.562 5.06016 761.562 9.375V40.625C761.562 44.9398 765.06 48.4375 769.375 48.4375H800.625C804.94 48.4375 808.438 44.9398 808.438 40.625V9.375C808.438 5.06016 804.94 1.5625 800.625 1.5625ZM786.561 29.2602H782.209V40.625H776.406V9.375H786.562C792.163 9.375 796.719 13.8336 796.719 19.318C796.719 24.8 792.163 29.2602 786.561 29.2602Z" fill="#FF5D24"/>
<path d="M989.583 6.25H960.417C958.125 6.25 956.25 8.125 956.25 10.4167V39.5833C956.25 41.875 958.125 43.75 960.417 43.75H989.583C991.875 43.75 993.75 41.875 993.75 39.5833V10.4167C993.75 8.125 991.875 6.25 989.583 6.25ZM967.708 12.5C968.399 12.5 969.061 12.7744 969.55 13.2627C970.038 13.7511 970.312 14.4135 970.312 15.1042C970.312 15.7948 970.038 16.4572 969.55 16.9456C969.061 17.434 968.399 17.7083 967.708 17.7083C967.018 17.7083 966.355 17.434 965.867 16.9456C965.379 16.4572 965.104 15.7948 965.104 15.1042C965.104 14.4135 965.379 13.7511 965.867 13.2627C966.355 12.7744 967.018 12.5 967.708 12.5ZM972.917 29.1667H970.833V37.5H964.583V29.1667H962.5V23.9583C962.5 21.6667 964.375 19.7917 966.667 19.7917H968.75C971.042 19.7917 972.917 21.6667 972.917 23.9583V29.1667ZM982.292 35.4167L977.083 27.0833H987.5L982.292 35.4167ZM977.083 22.9167L982.292 14.5833L987.5 22.9167H977.083Z" fill="#FF5D24"/>
<path d="M1144.17 20.8333C1156.67 6.94374 1173.33 6.94374 1185.83 20.8333M1152.5 29.1667C1160 20.8333 1170 20.8333 1177.5 29.1667" stroke="#FF5D24" stroke-width="3.33333" stroke-linecap="round" stroke-linejoin="round"/>
<path d="M1165 39.5834C1166.15 39.5834 1167.08 38.6506 1167.08 37.5C1167.08 36.3494 1166.15 35.4167 1165 35.4167C1163.85 35.4167 1162.92 36.3494 1162.92 37.5C1162.92 38.6506 1163.85 39.5834 1165 39.5834Z" stroke="#FF5D24" stroke-width="3.33333" stroke-linecap="round" stroke-linejoin="round"/>
</svg>
