<svg width="50" height="50" viewBox="0 0 50 50" fill="none" xmlns="http://www.w3.org/2000/svg">
<g clip-path="url(#clip0_202_2046)">
<path d="M46.7773 21.1946H44.444V37.0974L34.2218 26.8752L32.2635 28.8335L42.3051 38.8891H7.86068L17.5829 28.8335L15.5829 26.9029L5.55512 37.2779V13.2224L22.819 30.4029C23.3395 30.9203 24.0435 31.2107 24.7773 31.2107C25.5112 31.2107 26.2152 30.9203 26.7357 30.4029L35.9857 21.1946H32.0551L24.7773 28.4307L7.37457 11.1113H27.8607L29.4579 8.3335H5.55512C4.81841 8.3335 4.11187 8.62615 3.59094 9.14709C3.07 9.66802 2.77734 10.3746 2.77734 11.1113V38.8891C2.77734 39.6258 3.07 40.3323 3.59094 40.8532C4.11187 41.3742 4.81841 41.6668 5.55512 41.6668H44.444C45.1807 41.6668 45.8873 41.3742 46.4082 40.8532C46.9291 40.3323 47.2218 39.6258 47.2218 38.8891V21.1668L46.7773 21.1946Z" fill="#FF5D24"/>
<path d="M37.2919 1.38879L29.3475 15.1527C29.1954 15.4217 29.116 15.7257 29.1172 16.0348C29.1184 16.3438 29.2002 16.6472 29.3544 16.915C29.5086 17.1828 29.73 17.4058 29.9967 17.562C30.2634 17.7181 30.5662 17.802 30.8753 17.8055H46.778C47.0871 17.802 47.3899 17.7181 47.6566 17.562C47.9233 17.4058 48.1447 17.1828 48.2989 16.915C48.4531 16.6472 48.5349 16.3438 48.5361 16.0348C48.5373 15.7257 48.458 15.4217 48.3058 15.1527L40.3614 1.38879C40.2047 1.12081 39.9806 0.89853 39.7113 0.744056C39.4421 0.589581 39.1371 0.508301 38.8267 0.508301C38.5162 0.508301 38.2112 0.589581 37.942 0.744056C37.6727 0.89853 37.4486 1.12081 37.2919 1.38879Z" fill="#FF5D24"/>
</g>
<defs>
<clipPath id="clip0_202_2046">
<rect width="50" height="50" fill="white"/>
</clipPath>
</defs>
</svg>
