<svg width="22" height="18" viewBox="0 0 22 18" fill="none" xmlns="http://www.w3.org/2000/svg">
<path d="M6.89167 8.48206C8.01646 8.48206 9.09518 8.03523 9.89053 7.23989C10.6859 6.44454 11.1327 5.36582 11.1327 4.24103C11.1327 3.11624 10.6859 2.03752 9.89053 1.24217C9.09518 0.446821 8.01646 0 6.89167 0C5.76688 0 4.68816 0.446821 3.89281 1.24217C3.09746 2.03752 2.65064 3.11624 2.65064 4.24103C2.65064 5.36582 3.09746 6.44454 3.89281 7.23989C4.68816 8.03523 5.76688 8.48206 6.89167 8.48206ZM16.434 8.48206C17.2776 8.48206 18.0866 8.14694 18.6831 7.55043C19.2796 6.95392 19.6148 6.14488 19.6148 5.30128C19.6148 4.45769 19.2796 3.64865 18.6831 3.05214C18.0866 2.45563 17.2776 2.12051 16.434 2.12051C15.5904 2.12051 14.7813 2.45563 14.1848 3.05214C13.5883 3.64865 13.2532 4.45769 13.2532 5.30128C13.2532 6.14488 13.5883 6.95392 14.1848 7.55043C14.7813 8.14694 15.5904 8.48206 16.434 8.48206ZM1.98798 10.0724C1.46074 10.0724 0.955085 10.2819 0.582266 10.6547C0.209447 11.0275 0 11.5332 0 12.0604V12.7231C0 12.7231 0 17.4942 6.89167 17.4942C13.7833 17.4942 13.7833 12.7231 13.7833 12.7231V12.0604C13.7833 11.5332 13.5739 11.0275 13.2011 10.6547C12.8283 10.2819 12.3226 10.0724 11.7954 10.0724H1.98798ZM13.6105 15.951C14.34 16.2468 15.264 16.434 16.4335 16.434C21.9998 16.434 21.9998 12.193 21.9998 12.193V12.0604C21.9998 11.5333 21.7904 11.0277 21.4177 10.6549C21.045 10.2821 20.5395 10.0726 20.0123 10.0724H14.1051C14.5818 10.625 14.8436 11.3307 14.8425 12.0604V12.7469L14.842 12.7772C14.8389 12.8801 14.8318 12.9828 14.8208 13.0852C14.7945 13.3218 14.7518 13.5563 14.693 13.7871C14.4923 14.5779 14.123 15.3161 13.6105 15.951Z" fill="#FF6828"/>
</svg>
