<svg width="34" height="77" viewBox="0 0 34 77" fill="none" xmlns="http://www.w3.org/2000/svg">
<path d="M17 42.1328C20.1296 42.1328 22.6667 37.2188 22.6667 31.1572C22.6667 25.0955 20.1296 20.1816 17 20.1816C13.8704 20.1816 11.3333 25.0955 11.3333 31.1572C11.3333 37.2188 13.8704 42.1328 17 42.1328Z" stroke="#FF6828" stroke-width="3.75" stroke-linecap="round" stroke-linejoin="round"/>
<path d="M17 1.88889C12.9923 1.88889 9.14871 4.9725 6.31483 10.4614C3.48095 15.9502 1.88889 23.3947 1.88889 31.1572C1.88889 38.0791 2.64822 42.6084 4.72222 47.6206L17 75.0596L29.2778 47.6206C31.3518 42.6084 32.1111 38.0791 32.1111 31.1572C32.1111 23.3947 30.5191 15.9502 27.6852 10.4614C24.8513 4.9725 21.0077 1.88889 17 1.88889V1.88889Z" stroke="#FF6828" stroke-width="3.75" stroke-linecap="round" stroke-linejoin="round"/>
</svg>
