<svg width="40" height="40" viewBox="0 0 40 40" fill="none" xmlns="http://www.w3.org/2000/svg">
<mask id="mask0_150_146" style="mask-type:alpha" maskUnits="userSpaceOnUse" x="0" y="0" width="40" height="40">
<path d="M19.9997 36.6667V26.6667M3.33301 20H13.333M36.6663 20H26.6663M19.9997 36.6667C29.2047 36.6667 36.6663 29.205 36.6663 20C36.6663 10.795 29.2047 3.33333 19.9997 3.33333C10.7947 3.33333 3.33301 10.795 3.33301 20C3.33301 29.205 10.7947 36.6667 19.9997 36.6667Z" stroke="white" stroke-width="5" stroke-linecap="round" stroke-linejoin="round"/>
<path d="M26.6663 20C26.6663 21.7681 25.964 23.4638 24.7137 24.714C23.4635 25.9643 21.7678 26.6667 19.9997 26.6667C18.2316 26.6667 16.5359 25.9643 15.2856 24.714C14.0354 23.4638 13.333 21.7681 13.333 20C13.333 18.2319 14.0354 16.5362 15.2856 15.286C16.5359 14.0357 18.2316 13.3333 19.9997 13.3333C21.7678 13.3333 23.4635 14.0357 24.7137 15.286C25.964 16.5362 26.6663 18.2319 26.6663 20Z" fill="white"/>
<path d="M26.6663 20C26.6663 21.7681 25.964 23.4638 24.7137 24.714C23.4635 25.9643 21.7678 26.6667 19.9997 26.6667C18.2316 26.6667 16.5359 25.9643 15.2856 24.714C14.0354 23.4638 13.333 21.7681 13.333 20C13.333 18.2319 14.0354 16.5362 15.2856 15.286C16.5359 14.0357 18.2316 13.3333 19.9997 13.3333C21.7678 13.3333 23.4635 14.0357 24.7137 15.286C25.964 16.5362 26.6663 18.2319 26.6663 20Z" fill="white"/>
<path d="M26.6663 20C26.6663 21.7681 25.964 23.4638 24.7137 24.714C23.4635 25.9643 21.7678 26.6667 19.9997 26.6667C18.2316 26.6667 16.5359 25.9643 15.2856 24.714C14.0354 23.4638 13.333 21.7681 13.333 20C13.333 18.2319 14.0354 16.5362 15.2856 15.286C16.5359 14.0357 18.2316 13.3333 19.9997 13.3333C21.7678 13.3333 23.4635 14.0357 24.7137 15.286C25.964 16.5362 26.6663 18.2319 26.6663 20V20Z" stroke="white" stroke-width="5" stroke-linecap="round" stroke-linejoin="round"/>
</mask>
<g mask="url(#mask0_150_146)">
<path d="M0 0H40V40H0V0Z" fill="#FF6828"/>
</g>
</svg>
