<svg width="57" height="64" viewBox="0 0 57 64" fill="none" xmlns="http://www.w3.org/2000/svg">
<path d="M24.8889 35.5556V21.3333C24.8889 19.3778 23.2889 17.7778 21.3333 17.7778H7.11111V10.6667H24.8889V3.55556H16V0H8.88889V3.55556H3.55556C1.6 3.55556 0 5.15556 0 7.11111V21.3333C0 23.2889 1.6 24.8889 3.55556 24.8889H17.7778V32H0V39.1111H8.88889V42.6667H16V39.1111H21.3333C23.2889 39.1111 24.8889 37.5111 24.8889 35.5556ZM51.8756 33.8489L31.7511 53.9378L21.6889 43.8756L16.6756 48.9244L31.7511 64L56.8889 38.8622L51.8756 33.8489Z" fill="#FF6828"/>
</svg>
