<svg width="34" height="35" viewBox="0 0 34 35" fill="none" xmlns="http://www.w3.org/2000/svg">
<path d="M17 18.9395C20.1296 18.9395 22.6667 16.8576 22.6667 14.2893C22.6667 11.7211 20.1296 9.63917 17 9.63917C13.8704 9.63917 11.3333 11.7211 11.3333 14.2893C11.3333 16.8576 13.8704 18.9395 17 18.9395Z" stroke="#FF6828" stroke-width="3.75" stroke-linecap="round" stroke-linejoin="round"/>
<path d="M17 1.88889C12.9923 1.88889 9.14871 3.19536 6.31483 5.5209C3.48095 7.84644 1.88889 11.0005 1.88889 14.2893C1.88889 17.2221 2.64822 19.141 4.72222 21.2646L17 32.89L29.2778 21.2646C31.3518 19.141 32.1111 17.2221 32.1111 14.2893C32.1111 11.0005 30.5191 7.84644 27.6852 5.5209C24.8513 3.19536 21.0077 1.88889 17 1.88889V1.88889Z" stroke="#FF6828" stroke-width="3.75" stroke-linecap="round" stroke-linejoin="round"/>
</svg>
