<svg width="44" height="44" viewBox="0 0 44 44" fill="none" xmlns="http://www.w3.org/2000/svg">
<path d="M22 0C9.85089 0 0 9.85089 0 22C0 34.1491 9.85089 44 22 44C34.1491 44 44 34.1491 44 22C44 9.85089 34.1491 0 22 0ZM30.6674 28.7621L29.2629 30.6772C29.2324 30.7189 29.1939 30.7542 29.1497 30.781C29.1055 30.8078 29.0564 30.8255 29.0053 30.8333C28.9542 30.841 28.9021 30.8386 28.8519 30.8262C28.8017 30.8137 28.7545 30.7915 28.7129 30.7607L20.5906 24.8384C20.54 24.8021 20.4989 24.7541 20.4707 24.6985C20.4425 24.643 20.428 24.5815 20.4286 24.5192V11C20.4286 10.7839 20.6054 10.6071 20.8214 10.6071H23.1835C23.3996 10.6071 23.5763 10.7839 23.5763 11V23.154L30.579 28.217C30.7558 28.3397 30.7951 28.5853 30.6674 28.7621Z" fill="#FF5D24"/>
</svg>
