<svg width="85" height="85" viewBox="0 0 85 85" fill="none" xmlns="http://www.w3.org/2000/svg">
<g clip-path="url(#clip0_57_301)">
<path d="M14.757 27.1527L28.3333 31.0721L43.2556 20.2346L21.8403 20.8485C21.6306 20.86 21.4274 20.925 21.25 21.0374L14.4736 24.9332C14.2628 25.05 14.0919 25.2274 13.983 25.4423C13.8741 25.6573 13.8322 25.9 13.8627 26.139C13.8932 26.3781 13.9948 26.6024 14.1542 26.7832C14.3136 26.9639 14.5236 27.0926 14.757 27.1527Z" fill="#FF6828"/>
<path d="M81.5056 15.0166L66.6306 11.8055C65.3796 11.5339 64.0848 11.5346 62.8341 11.8075C61.5834 12.0805 60.4061 12.6193 59.382 13.3874L14.45 46.0416L3.65973 45.5693C3.04168 45.5483 2.43264 45.722 1.91861 46.0658C1.40457 46.4096 1.01153 46.9062 0.794958 47.4855C0.578391 48.0647 0.549248 48.6974 0.711643 49.2941C0.874038 49.8908 1.21977 50.4214 1.70001 50.811L12.207 59.1457C12.3799 59.2853 12.5858 59.3781 12.8049 59.4153C13.024 59.4525 13.249 59.4329 13.4583 59.3582C16.457 58.2013 27.625 52.2749 40.8236 45.0263L43.4681 72.2027C43.4905 72.438 43.5768 72.6628 43.7176 72.8528C43.8584 73.0427 44.0484 73.1906 44.267 73.2805C44.4857 73.3704 44.7248 73.3989 44.9585 73.3629C45.1922 73.3269 45.4116 73.2278 45.5931 73.0763L51.4958 68.1652C51.819 67.8942 52.0363 67.518 52.1097 67.1027L57.7056 35.7235C67.15 30.4818 76.1695 25.4055 82.5209 21.8166C83.18 21.4579 83.7129 20.9053 84.0475 20.2336C84.382 19.562 84.502 18.8037 84.3912 18.0615C84.2804 17.3194 83.9442 16.6292 83.428 16.0845C82.9118 15.5399 82.2407 15.1671 81.5056 15.0166Z" fill="#FF6828"/>
</g>
<defs>
<clipPath id="clip0_57_301">
<rect width="85" height="85" fill="white"/>
</clipPath>
</defs>
</svg>
