<svg width="85" height="85" viewBox="0 0 85 85" fill="none" xmlns="http://www.w3.org/2000/svg">
<path d="M22.5106 70.6664C17.9197 70.6664 14.184 66.9306 14.184 62.3398C14.184 57.7489 17.9197 54.0132 22.5106 54.0132C27.1014 54.0132 30.8363 57.7489 30.8363 62.3398C30.8363 66.9306 27.1023 70.6664 22.5106 70.6664ZM22.5106 57.4132C19.794 57.4132 17.584 59.6232 17.584 62.3398C17.584 65.0564 19.794 67.2664 22.5106 67.2664C25.2272 67.2664 27.4363 65.0564 27.4363 62.3398C27.4363 59.6232 25.2272 57.4132 22.5106 57.4132Z" fill="#FF6828"/>
<path d="M62.2013 29.2757C65.8611 29.2757 68.8279 26.3088 68.8279 22.6491C68.8279 18.9893 65.8611 16.0225 62.2013 16.0225C58.5415 16.0225 55.5747 18.9893 55.5747 22.6491C55.5747 26.3088 58.5415 29.2757 62.2013 29.2757Z" fill="#FF6828"/>
<path d="M54.6065 29.9302L47.2379 31.9039L49.334 34L29.8749 53.4599L31.0768 54.6618L50.5359 35.2019L52.6328 37.2988L54.6065 29.9302Z" fill="#FF6828"/>
</svg>
