<svg width="50" height="50" viewBox="0 0 50 50" fill="none" xmlns="http://www.w3.org/2000/svg">
<path d="M36.6771 34.2083V15.375L29.6458 24.2917L28.8958 25.1667L26.6354 28.0521H39.0625M10.9375 21.6563C10.9375 19.9986 11.596 18.4089 12.7681 17.2368C13.9402 16.0647 15.5299 15.4062 17.1875 15.4062C18.8451 15.4062 20.4348 16.0647 21.6069 17.2368C22.779 18.4089 23.4375 19.9986 23.4375 21.6563C23.4769 22.4765 23.3338 23.2954 23.0186 24.0537C22.7034 24.812 22.2239 25.491 21.6146 26.0417C19.0937 28.2917 10.9375 34.1979 10.9375 34.1979H23.3646" stroke="#FF5D24" stroke-width="0.833333" stroke-linecap="round" stroke-linejoin="round"/>
<path d="M25.0003 47.3957C37.3692 47.3957 47.3962 37.3687 47.3962 24.9998C47.3962 12.631 37.3692 2.604 25.0003 2.604C12.6314 2.604 2.60449 12.631 2.60449 24.9998C2.60449 37.3687 12.6314 47.3957 25.0003 47.3957Z" stroke="#FF5D24" stroke-width="0.833333" stroke-linecap="round" stroke-linejoin="round"/>
</svg>
