<svg width="30" height="37" viewBox="0 0 30 37" fill="none" xmlns="http://www.w3.org/2000/svg">
<path d="M15 20C17.7614 20 20 17.7614 20 15C20 12.2386 17.7614 10 15 10C12.2386 10 10 12.2386 10 15C10 17.7614 12.2386 20 15 20Z" stroke="#FF5D24" stroke-width="3.33333" stroke-linecap="round" stroke-linejoin="round"/>
<path d="M15.0003 1.66663C11.4641 1.66663 8.07272 3.07138 5.57224 5.57187C3.07175 8.07235 1.66699 11.4637 1.66699 15C1.66699 18.1533 2.33699 20.2166 4.16699 22.5L15.0003 35L25.8337 22.5C27.6637 20.2166 28.3337 18.1533 28.3337 15C28.3337 11.4637 26.9289 8.07235 24.4284 5.57187C21.9279 3.07138 18.5365 1.66663 15.0003 1.66663V1.66663Z" stroke="#FF5D24" stroke-width="3.33333" stroke-linecap="round" stroke-linejoin="round"/>
</svg>
