<svg width="147" height="66" viewBox="0 0 147 66" fill="none" xmlns="http://www.w3.org/2000/svg">
<g clip-path="url(#clip0_193_1742)">
<path d="M26.7263 65.6721V61.3038C26.7263 59.6289 24.9612 58.5371 21.9358 58.5371C20.4234 58.5371 18.7847 58.8283 17.6501 59.7749C16.7681 58.9739 15.5078 58.5371 13.617 58.5371C12.3561 58.5371 11.0963 58.7553 10.0874 59.5563V58.6827H7.44043V65.6721H10.0874V61.8132C10.0874 60.5758 11.222 59.9931 12.9871 59.9931C14.751 59.9931 15.6341 60.6484 15.6341 61.8132V65.6721H18.2811V61.8132C18.2811 60.5758 19.5409 59.9931 21.1796 59.9931C22.9447 59.9931 23.8266 60.6484 23.8266 61.8132V65.6721H26.7263ZM65.9267 58.6827H61.6415V56.5714H58.9945V58.6827H56.5996V60.0657H58.9939V63.2695C58.9939 64.8715 60.1285 65.8177 63.1539 65.8177C64.2885 65.8177 65.5483 65.5994 66.4314 65.3082L65.6746 63.9975C64.9184 64.2887 64.0365 64.3617 63.406 64.3617C62.1457 64.3617 61.6415 63.9249 61.6415 63.1966V60.0657H65.9267V58.6827ZM88.3637 58.5368C86.8513 58.5368 85.843 58.9739 85.2125 59.5563V58.6827H82.5655V65.6721H85.2125V61.7406C85.2125 60.5758 86.0945 59.9205 87.7332 59.9205C88.2374 59.9205 88.8678 59.9934 89.372 60.0661L90.1282 58.6101C89.624 58.5371 88.8678 58.5371 88.3637 58.5371V58.5368ZM54.4567 59.2651C53.1958 58.7553 51.4313 58.5371 49.5405 58.5371C46.5157 58.5371 44.4991 59.4107 44.4991 60.794C44.4991 61.9592 46.0115 62.6142 48.6585 62.8327L49.9189 62.9057C51.3055 63.051 52.0618 63.2695 52.0618 63.6337C52.0618 64.1431 51.0535 64.5073 49.2884 64.5073C47.524 64.5073 46.1373 64.1431 45.2548 63.7793L43.9944 64.9441C45.3811 65.5265 47.2719 65.8177 49.1621 65.8177C52.6916 65.8177 54.7088 64.8715 54.7088 63.5607C54.7088 62.323 53.07 61.6676 50.5488 61.4494L49.2884 61.3764C48.1538 61.3035 47.2719 61.1582 47.2719 60.7214C47.2719 60.2117 48.1538 59.9205 49.5405 59.9205C51.0535 59.9205 52.5659 60.2843 53.3221 60.5029L54.4567 59.2651ZM124.792 58.5371C123.279 58.5371 122.271 58.9739 121.64 59.5563V58.6827H118.993V65.6721H121.64V61.7406C121.64 60.5758 122.523 59.9205 124.161 59.9205C124.666 59.9205 125.296 59.9934 125.8 60.0661L126.556 58.6101C126.052 58.5371 125.296 58.5371 124.792 58.5371ZM91.0107 62.1774C91.0107 64.2887 93.5314 65.8177 97.4393 65.8177C99.2038 65.8177 100.464 65.5994 101.724 65.017L100.464 63.7793C99.4558 64.2161 98.4476 64.4343 97.313 64.4343C95.1701 64.4343 93.6577 63.5607 93.6577 62.1774C93.6577 60.867 95.1701 59.9931 97.313 59.9205C98.4476 59.9205 99.4558 60.1387 100.464 60.5758L101.724 59.3381C100.464 58.7553 99.2038 58.5371 97.4393 58.5371C93.5314 58.5371 91.0107 60.0661 91.0107 62.1774ZM115.464 62.1774V58.6827H112.817V59.5563C111.935 58.9013 110.674 58.5371 109.036 58.5371C105.632 58.5371 102.985 60.0661 102.985 62.1774C102.985 64.2887 105.632 65.8177 109.036 65.8177C110.8 65.8177 112.061 65.4538 112.817 64.7985V65.6721H115.464V62.1774ZM105.758 62.1774C105.758 60.9396 107.145 59.9205 109.413 59.9205C111.556 59.9205 113.069 60.867 113.069 62.1774C113.069 63.4151 111.556 64.4343 109.413 64.4343C107.145 64.3614 105.758 63.4151 105.758 62.1774ZM74.1204 58.5371C70.5908 58.5371 68.0696 59.9931 68.0696 62.1774C68.0696 64.3617 70.5902 65.8177 74.2461 65.8177C76.0106 65.8177 77.7756 65.5265 79.1623 64.8715L77.9014 63.7793C76.8931 64.2161 75.6328 64.5073 74.3724 64.5073C72.7337 64.5073 71.095 64.0705 70.7166 62.8324H79.6665V62.2504C79.7928 59.9931 77.5236 58.5371 74.1198 58.5371H74.1204ZM74.1204 59.8475C75.7585 59.8475 76.8937 60.4302 77.1452 61.5224H70.8429C71.095 60.5758 72.2296 59.8475 74.1204 59.8475ZM139.791 62.1774V55.916H137.144V59.5563C136.262 58.9013 135.002 58.5371 133.363 58.5371C129.96 58.5371 127.313 60.0661 127.313 62.1774C127.313 64.2887 129.96 65.8177 133.363 65.8177C135.128 65.8177 136.388 65.4538 137.144 64.7985V65.6721H139.791V62.1774ZM130.086 62.1774C130.086 60.9396 131.472 59.9205 133.741 59.9205C135.884 59.9205 137.396 60.867 137.396 62.1774C137.396 63.4151 135.884 64.4343 133.741 64.4343C131.472 64.3614 130.086 63.4151 130.086 62.1774ZM41.5995 62.1774V58.6827H38.9525V59.5563C38.0699 58.9013 36.8096 58.5371 35.1709 58.5371C31.7676 58.5371 29.1206 60.0661 29.1206 62.1774C29.1206 64.2887 31.7676 65.8177 35.1709 65.8177C36.9359 65.8177 38.1963 65.4538 38.9525 64.7985V65.6721H41.5995V62.1774ZM31.7676 62.1774C31.7676 60.9396 33.1543 59.9205 35.4229 59.9205C37.5658 59.9205 39.0788 60.867 39.0788 62.1774C39.0788 63.4151 37.5658 64.4343 35.4229 64.4343C33.1543 64.3614 31.7676 63.4151 31.7676 62.1774Z" fill="black"/>
<path d="M53.5742 5.60596H93.2794V46.8148H53.5742V5.60596Z" fill="#FF5F00"/>
<path d="M56.0958 26.2106C56.0958 17.8379 62.9022 10.4114 73.364 5.60602C65.6756 2.11134 55.9701 0 45.382 0C20.2975 0 0.00390625 11.7218 0.00390625 26.2106C0.00390625 40.6991 20.2975 52.4212 45.3815 52.4212C55.9695 52.4212 65.675 50.3099 73.364 46.8149C62.9022 42.0825 56.0958 34.5833 56.0958 26.2106Z" fill="#EB001B"/>
<path d="M146.85 26.2106C146.85 40.6991 126.557 52.4212 101.473 52.4212C90.8847 52.4212 81.1792 50.3099 73.4902 46.8149C84.0783 42.0098 90.759 34.5833 90.759 26.2106C90.759 17.8379 83.9519 10.4114 73.4902 5.60602C81.1786 2.11134 90.8847 0 101.473 0C126.557 0 146.851 11.7948 146.851 26.2106H146.85Z" fill="#F79E1B"/>
</g>
<defs>
<clipPath id="clip0_193_1742">
<rect width="147" height="66" fill="white"/>
</clipPath>
</defs>
</svg>
