<svg width="22" height="15" viewBox="0 0 22 15" fill="none" xmlns="http://www.w3.org/2000/svg">
<path d="M9.57264 13.5469L0.473098 3.14575C-0.600784 1.92198 0.271982 6.97655e-07 1.90178 6.97655e-07H20.1009C20.4656 -0.000312032 20.8227 0.104519 21.1294 0.301941C21.4361 0.499363 21.6794 0.781006 21.8302 1.11314C21.9809 1.44528 22.0327 1.81383 21.9794 2.17466C21.9261 2.53549 21.7699 2.87331 21.5295 3.14765L12.43 13.545C12.2519 13.7487 12.0323 13.9121 11.7859 14.024C11.5395 14.1359 11.272 14.1938 11.0013 14.1938C10.7307 14.1938 10.4632 14.1359 10.2168 14.024C9.97035 13.9121 9.75072 13.7487 9.57264 13.545V13.5469Z" fill="white"/>
</svg>
