<svg width="40" height="40" viewBox="0 0 40 40" fill="none" xmlns="http://www.w3.org/2000/svg">
<path d="M31.25 20H21.25C20.5872 20.0007 19.9517 20.2643 19.483 20.733C19.0143 21.2017 18.7507 21.8372 18.75 22.5V30H5V17.5H2.5V37.5H5V32.5H35V37.5H37.5V26.25C37.498 24.593 36.8389 23.0044 35.6672 21.8328C34.4956 20.6611 32.907 20.002 31.25 20ZM35 30H21.25V22.5H31.25C32.2443 22.501 33.1975 22.8964 33.9006 23.5994C34.6036 24.3025 34.999 25.2557 35 26.25V30Z" fill="#FF5D24"/>
<path d="M11.875 21.25C12.2458 21.25 12.6084 21.36 12.9167 21.566C13.225 21.772 13.4654 22.0649 13.6073 22.4075C13.7492 22.7501 13.7863 23.1271 13.714 23.4908C13.6416 23.8545 13.4631 24.1886 13.2008 24.4508C12.9386 24.713 12.6045 24.8916 12.2408 24.964C11.8771 25.0363 11.5001 24.9992 11.1575 24.8573C10.8149 24.7154 10.522 24.475 10.316 24.1667C10.11 23.8584 10 23.4958 10 23.125C10.0007 22.6279 10.1984 22.1514 10.5499 21.7999C10.9014 21.4484 11.3779 21.2507 11.875 21.25ZM11.875 18.75C11.0097 18.75 10.1638 19.0066 9.44438 19.4873C8.72492 19.9681 8.16416 20.6513 7.83303 21.4508C7.5019 22.2502 7.41526 23.1299 7.58407 23.9785C7.75288 24.8272 8.16956 25.6067 8.78141 26.2186C9.39326 26.8304 10.1728 27.2471 11.0215 27.4159C11.8701 27.5847 12.7498 27.4981 13.5492 27.167C14.3487 26.8358 15.032 26.2751 15.5127 25.5556C15.9934 24.8362 16.25 23.9903 16.25 23.125C16.25 21.9647 15.7891 20.8519 14.9686 20.0314C14.1481 19.2109 13.0353 18.75 11.875 18.75ZM26.25 7.5H21.25V2.5H18.75V7.5H13.75V10H18.75V15H21.25V10H26.25V7.5Z" fill="#FF5D24"/>
</svg>
