<svg width="31" height="20" viewBox="0 0 31 20" fill="none" xmlns="http://www.w3.org/2000/svg">
<path fill-rule="evenodd" clip-rule="evenodd" d="M0 9.96505C0 9.67143 0.116638 9.38985 0.324254 9.18223C0.53187 8.97461 0.813458 8.85797 1.10707 8.85797H27.2185L20.2506 1.89228C20.0427 1.6844 19.9259 1.40246 19.9259 1.10847C19.9259 0.814486 20.0427 0.532542 20.2506 0.324663C20.4584 0.116785 20.7404 6.92652e-09 21.0344 0C21.3284 -6.92652e-09 21.6103 0.116785 21.8182 0.324663L30.6748 9.18124C30.7779 9.28408 30.8597 9.40625 30.9155 9.54074C30.9713 9.67524 31 9.81943 31 9.96505C31 10.1107 30.9713 10.2549 30.9155 10.3894C30.8597 10.5238 30.7779 10.646 30.6748 10.7489L21.8182 19.6054C21.6103 19.8133 21.3284 19.9301 21.0344 19.9301C20.7404 19.9301 20.4584 19.8133 20.2506 19.6054C20.0427 19.3976 19.9259 19.1156 19.9259 18.8216C19.9259 18.5276 20.0427 18.2457 20.2506 18.0378L27.2185 11.0721H1.10707C0.813458 11.0721 0.53187 10.9555 0.324254 10.7479C0.116638 10.5403 0 10.2587 0 9.96505Z" fill="#41B4AE"/>
</svg>
