<svg width="45" height="40" viewBox="0 0 45 40" fill="none" xmlns="http://www.w3.org/2000/svg">
<path d="M27.0547 20.8594L22.3594 19.1484L16.7188 34.625H2.5C1.11719 34.625 0 35.7422 0 37.125C0 38.5078 1.11719 39.625 2.5 39.625H42.5C43.8828 39.625 45 38.5078 45 37.125C45 35.7422 43.8828 34.625 42.5 34.625H22.0391L27.0469 20.8594H27.0547ZM36.5156 20.8438L36.2578 21.5547L41.5469 23.4766C42.9609 23.9922 44.5156 23.1484 44.6406 21.6484C45.1484 15.5156 42.7734 9.5 38.3281 5.35938C38.4844 5.98438 38.5781 6.63281 38.5938 7.29687L38.6094 7.76562C38.75 12.2188 38.0391 16.6563 36.5156 20.8438ZM36.0938 7.36719C36.0078 4.67969 34.3359 2.30469 31.8438 1.32031C31.7734 1.28906 31.6953 1.26562 31.625 1.23438C29.0469 0.320313 26.1719 1.04688 24.3516 3.09375L24.0391 3.44531C21.2813 6.52344 19.1406 10.1094 17.7188 14L17.4609 14.7109L33.9062 20.6953L34.1641 19.9844C35.5781 16.0938 36.2422 11.9766 36.1094 7.83594L36.0938 7.36719ZM8.375 8.44531C7.50781 9.67188 8.15625 11.3203 9.57031 11.8359L15.1172 13.8516L15.375 13.1406C16.8984 8.95312 19.2109 5.09375 22.1797 1.77344L22.4922 1.42188C22.9766 0.882813 23.5156 0.40625 24.0938 0C17.875 0.195312 12.0078 3.29687 8.375 8.4375V8.44531Z" fill="#FF5D24"/>
</svg>
