<svg width="29" height="29" viewBox="0 0 29 29" fill="none" xmlns="http://www.w3.org/2000/svg">
<path d="M27.6481 4.5822L23.9 0.837607C23.6356 0.572049 23.3213 0.361346 22.9752 0.217603C22.6292 0.0738606 22.2581 -8.98126e-05 21.8834 8.18585e-08C21.1197 8.18585e-08 20.4017 0.299145 19.8633 0.837607L15.8301 4.87079C15.5645 5.13519 15.3538 5.44945 15.2101 5.79551C15.0663 6.14158 14.9924 6.51265 14.9925 6.88738C14.9925 7.65108 15.2916 8.36903 15.8301 8.90749L18.7793 11.8567C18.0889 13.3783 17.1291 14.7626 15.9462 15.9427C14.7662 17.1285 13.3821 18.0918 11.8602 18.7863L8.91101 15.8371C8.64662 15.5715 8.33236 15.3608 7.98629 15.2171C7.64022 15.0734 7.26916 14.9994 6.89442 14.9995C6.13072 14.9995 5.41277 15.2986 4.87431 15.8371L0.837609 19.8668C0.571725 20.1317 0.360841 20.4465 0.217091 20.7932C0.0733419 21.1399 -0.000436115 21.5116 1.93929e-06 21.8869C1.93929e-06 22.6506 0.299147 23.3685 0.837609 23.907L4.57869 27.6481C5.43741 28.5103 6.62343 28.9995 7.84113 28.9995C8.09804 28.9995 8.3444 28.9784 8.58723 28.9361C13.3313 28.1549 18.0367 25.6315 21.8341 21.8376C25.628 18.0473 28.1478 13.3454 28.9397 8.58723C29.179 7.13374 28.6968 5.63801 27.6481 4.5822Z" fill="#FF6828"/>
</svg>
