<svg width="71" height="71" viewBox="0 0 71 71" fill="none" xmlns="http://www.w3.org/2000/svg">
<path d="M46.5937 35.5C46.5937 38.4422 45.4249 41.2639 43.3444 43.3444C41.2639 45.4249 38.4422 46.5937 35.5 46.5937C32.5577 46.5937 29.736 45.4249 27.6555 43.3444C25.575 41.2639 24.4062 38.4422 24.4062 35.5C24.4062 34.8676 24.4728 34.2501 24.5874 33.651H20.7083V48.4316C20.7083 49.4596 21.5403 50.2916 22.5684 50.2916H48.4353C48.9279 50.2906 49.4001 50.0942 49.7481 49.7455C50.0961 49.3968 50.2916 48.9242 50.2916 48.4316V33.651H46.4125C46.5271 34.2501 46.5937 34.8676 46.5937 35.5ZM35.5 42.8958C36.4714 42.8955 37.4333 42.704 38.3308 42.332C39.2282 41.96 40.0436 41.4149 40.7304 40.7278C41.4171 40.0406 41.9618 39.225 42.3334 38.3274C42.7049 37.4298 42.896 36.4677 42.8958 35.4963C42.8955 34.5248 42.7039 33.5629 42.332 32.6654C41.96 31.768 41.4149 30.9526 40.7277 30.2659C40.0406 29.5791 39.225 29.0344 38.3274 28.6628C37.4297 28.2913 36.4677 28.1002 35.4963 28.1004C33.5343 28.1009 31.6528 28.8808 30.2659 30.2685C28.8789 31.6562 28.0999 33.538 28.1004 35.5C28.1009 37.462 28.8808 39.3434 30.2685 40.7304C31.6562 42.1174 33.538 42.8963 35.5 42.8958ZM44.3749 27.7343H48.8087C49.1033 27.7343 49.3859 27.6176 49.5945 27.4096C49.8031 27.2017 49.9208 26.9195 49.9218 26.625V22.1912C49.9218 21.896 49.8045 21.6129 49.5958 21.4041C49.3871 21.1954 49.104 21.0781 48.8087 21.0781H44.3749C44.0797 21.0781 43.7966 21.1954 43.5879 21.4041C43.3791 21.6129 43.2619 21.896 43.2619 22.1912V26.625C43.2656 27.2351 43.7648 27.7343 44.3749 27.7343ZM35.5 0C26.0848 0 17.0552 3.74016 10.3977 10.3977C3.74016 17.0552 0 26.0848 0 35.5C0 44.9151 3.74016 53.9447 10.3977 60.6022C17.0552 67.2598 26.0848 70.9999 35.5 70.9999C40.1619 70.9999 44.7782 70.0817 49.0852 68.2977C53.3923 66.5136 57.3057 63.8987 60.6022 60.6022C63.8987 57.3058 66.5136 53.3923 68.2976 49.0852C70.0817 44.7782 70.9999 40.1619 70.9999 35.5C70.9999 30.838 70.0817 26.2218 68.2976 21.9147C66.5136 17.6077 63.8987 13.6942 60.6022 10.3977C57.3057 7.10122 53.3923 4.48631 49.0852 2.70227C44.7782 0.918234 40.1619 0 35.5 0ZM53.9895 49.8811C53.9895 52.1406 52.1406 53.9895 49.8811 53.9895H21.1188C18.8594 53.9895 17.0104 52.1406 17.0104 49.8811V21.1188C17.0104 18.8594 18.8594 17.0104 21.1188 17.0104H49.8811C52.1406 17.0104 53.9895 18.8594 53.9895 21.1188V49.8811Z" fill="#FF6828"/>
</svg>
