<svg width="38" height="40" viewBox="0 0 38 40" fill="none" xmlns="http://www.w3.org/2000/svg">
<path d="M29.4737 5.26315C29.4737 8.21052 27.1579 10.5263 24.2105 10.5263C21.2631 10.5263 18.9473 8.21052 18.9473 5.26315C18.9473 2.31579 21.2631 0 24.2105 0C27.1579 0 29.4737 2.31579 29.4737 5.26315ZM25.2631 12.6316H23.5789C19.1579 12.6316 14.9474 10.1053 12.8421 6.10526C12.6316 5.89473 12.421 5.6842 12.421 5.47368L8.63157 7.15789C9.6842 10.1053 13.0526 13.8947 17.8947 15.7895L14.1052 26.3158L5.89473 24L0 35.5789L4.21052 36.6315L7.99999 29.0526L17.4737 31.5789C19.5789 32 21.6842 30.9473 22.5263 29.0526L27.3684 15.5789C27.7894 14.1052 26.7368 12.6316 25.2631 12.6316ZM33.4736 10.5263L26.3158 30.3158C25.0526 33.6842 21.8947 35.7894 18.5263 35.7894C17.8947 35.7894 17.0526 35.7894 16.421 35.5789L10.3158 33.8947L8.42104 37.6842L12.6316 38.7368L15.5789 39.5789C16.6316 39.7894 17.6842 40 18.7368 40C24 40 28.6315 36.8421 30.5263 31.7894L37.8947 10.5263H33.4736Z" fill="#FF5D24"/>
</svg>
