<svg width="50" height="50" viewBox="0 0 50 50" fill="none" xmlns="http://www.w3.org/2000/svg">
<path d="M24.9024 4.16666C13.4691 4.16666 4.16699 13.5125 4.16699 25C4.16699 36.4875 13.5128 45.8333 25.0003 45.8333C36.4878 45.8333 45.8337 36.4875 45.8337 25C45.8337 13.5125 36.4441 4.16666 24.9024 4.16666ZM25.0003 41.6667C15.8107 41.6667 8.33366 34.1896 8.33366 25C8.33366 15.8104 15.7649 8.33333 24.9024 8.33333C34.1482 8.33333 41.667 15.8104 41.667 25C41.667 34.1896 34.1899 41.6667 25.0003 41.6667Z" fill="#FF5D24"/>
<path d="M22.917 14.5833H27.0837V29.1667H22.917V14.5833ZM22.917 31.25H27.0837V35.4167H22.917V31.25Z" fill="#FF5D24"/>
</svg>
