<svg width="65" height="65" viewBox="0 0 65 65" fill="none" xmlns="http://www.w3.org/2000/svg">
<path d="M32.5 0C14.625 0 0 14.6511 0 32.6958C0 49.0111 11.895 62.5527 27.43 65V42.1586H19.175V32.6958H27.43V25.4844C27.43 17.2942 32.2725 12.7912 39.715 12.7912C43.2574 12.7912 46.9624 13.4111 46.9624 13.4111V21.4709H42.8674C38.8375 21.4709 37.57 23.9834 37.57 26.5612V32.6958H46.6049L45.1424 42.1586H37.57V65C45.2284 63.7856 52.2021 59.8624 57.2322 53.9385C62.2623 48.0145 65.0173 40.4803 64.9999 32.6958C64.9999 14.6511 50.3749 0 32.5 0Z" fill="#FF6828"/>
</svg>
