<svg width="55" height="35" viewBox="0 0 55 35" fill="none" xmlns="http://www.w3.org/2000/svg">
<path d="M46.75 12.5H45.375L36.0267 1.87656C35.5113 1.29108 34.8577 0.818444 34.1142 0.493619C33.3707 0.168794 32.5564 9.37575e-05 31.7316 0H13.3487C11.0997 0 9.07758 1.24453 8.24227 3.14297L4.125 12.6766C1.75656 13.2344 0 15.1727 0 17.5V26.25C0 26.9406 0.615312 27.5 1.375 27.5H5.5C5.5 31.6422 9.19359 35 13.75 35C18.3064 35 22 31.6422 22 27.5H33C33 31.6422 36.6936 35 41.25 35C45.8064 35 49.5 31.6422 49.5 27.5H53.625C54.3847 27.5 55 26.9406 55 26.25V20C55 15.8578 51.3064 12.5 46.75 12.5ZM13.75 31.25C11.4752 31.25 9.625 29.568 9.625 27.5C9.625 25.432 11.4752 23.75 13.75 23.75C16.0248 23.75 17.875 25.432 17.875 27.5C17.875 29.568 16.0248 31.25 13.75 31.25ZM19.9375 12.5H10.0487L13.3487 5H19.9375V12.5ZM24.0625 12.5V5H31.7316L38.3316 12.5H24.0625ZM41.25 31.25C38.9752 31.25 37.125 29.568 37.125 27.5C37.125 25.432 38.9752 23.75 41.25 23.75C43.5248 23.75 45.375 25.432 45.375 27.5C45.375 29.568 43.5248 31.25 41.25 31.25Z" fill="#FF6828"/>
</svg>
