<svg width="85" height="85" viewBox="0 0 85 85" fill="none" xmlns="http://www.w3.org/2000/svg">
<path d="M79.6875 0C82.626 0 85 2.379 85 5.3125C85 8.246 82.626 10.625 79.6875 10.625V74.375C82.626 74.375 85 76.749 85 79.6875C85 82.626 82.626 85 79.6875 85H50.4688V74.375H34.5312V85H5.3125C2.379 85 0 82.626 0 79.6875C0 76.749 2.379 74.375 5.3125 74.375V10.625C2.379 10.625 0 8.246 0 5.3125C0 2.379 2.379 0 5.3125 0H79.6875ZM18.5938 15.9375C17.1328 15.9375 15.9375 17.1328 15.9375 18.5938V23.9062C15.9375 25.3672 17.1328 26.5625 18.5938 26.5625H23.9062C25.3672 26.5625 26.5625 25.3672 26.5625 23.9062V18.5938C26.5625 17.1328 25.3672 15.9375 23.9062 15.9375H18.5938ZM37.1875 23.9062C37.1875 25.3672 38.3828 26.5625 39.8438 26.5625H45.1562C46.6172 26.5625 47.8125 25.3672 47.8125 23.9062V18.5938C47.8125 17.1328 46.6172 15.9375 45.1562 15.9375H39.8438C38.3828 15.9375 37.1875 17.1328 37.1875 18.5938V23.9062ZM61.0938 15.9375C59.6328 15.9375 58.4375 17.1328 58.4375 18.5938V23.9062C58.4375 25.3672 59.6328 26.5625 61.0938 26.5625H66.4062C67.8672 26.5625 69.0625 25.3672 69.0625 23.9062V18.5938C69.0625 17.1328 67.8672 15.9375 66.4062 15.9375H61.0938ZM15.9375 39.8438C15.9375 41.3047 17.1328 42.5 18.5938 42.5H23.9062C25.3672 42.5 26.5625 41.3047 26.5625 39.8438V34.5312C26.5625 33.0703 25.3672 31.875 23.9062 31.875H18.5938C17.1328 31.875 15.9375 33.0703 15.9375 34.5312V39.8438ZM39.8438 31.875C38.3828 31.875 37.1875 33.0703 37.1875 34.5312V39.8438C37.1875 41.3047 38.3828 42.5 39.8438 42.5H45.1562C46.6172 42.5 47.8125 41.3047 47.8125 39.8438V34.5312C47.8125 33.0703 46.6172 31.875 45.1562 31.875H39.8438ZM58.4375 39.8438C58.4375 41.3047 59.6328 42.5 61.0938 42.5H66.4062C67.8672 42.5 69.0625 41.3047 69.0625 39.8438V34.5312C69.0625 33.0703 67.8672 31.875 66.4062 31.875H61.0938C59.6328 31.875 58.4375 33.0703 58.4375 34.5312V39.8438ZM42.5 47.8125C35.0625 47.8125 28.8037 52.9092 26.9111 59.7988C26.5127 61.9404 28.3389 63.75 30.5469 63.75H54.4531C56.6611 63.75 58.4873 61.9404 57.9395 59.7988C56.1963 52.9092 49.9375 47.8125 42.5 47.8125Z" fill="#FF6828"/>
</svg>
