<svg width="34" height="34" viewBox="0 0 34 34" fill="none" xmlns="http://www.w3.org/2000/svg">
<path d="M5.10023 18.6996V5.0999C5.10023 4.19818 5.45844 3.3334 6.09605 2.69579C6.73366 2.05817 7.59845 1.69997 8.50017 1.69997H28.8998C29.8015 1.69997 30.6663 2.05817 31.3039 2.69579C31.9415 3.3334 32.2997 4.19818 32.2997 5.0999V27.1995C32.2997 28.8994 31.2797 32.2994 27.1998 32.2994M11.9001 8.49984H25.4998M11.9001 15.2997H18.7M27.1998 32.2994H6.8002C5.10023 32.2994 1.7003 31.2794 1.7003 27.1995V23.7995H22.0999V27.1995C22.0999 31.2794 25.4998 32.2994 27.1998 32.2994Z" stroke="#FF5D24" stroke-width="3.33333" stroke-linecap="round" stroke-linejoin="round"/>
</svg>
