<svg width="50" height="50" viewBox="0 0 50 50" fill="none" xmlns="http://www.w3.org/2000/svg">
<path d="M25.125 42.5L32.25 35.4375L25.125 28.375L22.5 31L25.1875 33.6875C24.0208 33.7292 22.8858 33.5417 21.7825 33.125C20.6775 32.7083 19.6875 32.0625 18.8125 31.1875C17.9792 30.3542 17.3433 29.3958 16.905 28.3125C16.4683 27.2292 16.25 26.1458 16.25 25.0625C16.25 24.3542 16.3442 23.6458 16.5325 22.9375C16.7192 22.2292 16.9792 21.5417 17.3125 20.875L14.5625 18.125C13.8542 19.1667 13.3333 20.2708 13 21.4375C12.6667 22.6042 12.5 23.7917 12.5 25C12.5 26.5833 12.8125 28.1458 13.4375 29.6875C14.0625 31.2292 14.9792 32.6042 16.1875 33.8125C17.3958 35.0208 18.75 35.9275 20.25 36.5325C21.75 37.1358 23.2917 37.4583 24.875 37.5L22.5 39.875L25.125 42.5ZM35.4375 31.875C36.1458 30.8333 36.6667 29.7292 37 28.5625C37.3333 27.3958 37.5 26.2083 37.5 25C37.5 23.4167 37.1983 21.8433 36.595 20.28C35.99 18.7183 35.0833 17.3333 33.875 16.125C32.6667 14.9167 31.3025 14.0208 29.7825 13.4375C28.2608 12.8542 26.7083 12.5625 25.125 12.5625L27.5 10.125L24.875 7.5L17.75 14.5625L24.875 21.625L27.5 19L24.75 16.25C25.875 16.25 27.0208 16.4683 28.1875 16.905C29.3542 17.3433 30.3542 17.9792 31.1875 18.8125C32.0208 19.6458 32.6567 20.6042 33.095 21.6875C33.5317 22.7708 33.75 23.8542 33.75 24.9375C33.75 25.6458 33.6558 26.3542 33.4675 27.0625C33.2808 27.7708 33.0208 28.4583 32.6875 29.125L35.4375 31.875ZM25 50C21.5417 50 18.2917 49.3433 15.25 48.03C12.2083 46.7183 9.5625 44.9375 7.3125 42.6875C5.0625 40.4375 3.28167 37.7917 1.97 34.75C0.656667 31.7083 0 28.4583 0 25C0 21.5417 0.656667 18.2917 1.97 15.25C3.28167 12.2083 5.0625 9.5625 7.3125 7.3125C9.5625 5.0625 12.2083 3.28083 15.25 1.9675C18.2917 0.655833 21.5417 0 25 0C28.4583 0 31.7083 0.655833 34.75 1.9675C37.7917 3.28083 40.4375 5.0625 42.6875 7.3125C44.9375 9.5625 46.7183 12.2083 48.03 15.25C49.3433 18.2917 50 21.5417 50 25C50 28.4583 49.3433 31.7083 48.03 34.75C46.7183 37.7917 44.9375 40.4375 42.6875 42.6875C40.4375 44.9375 37.7917 46.7183 34.75 48.03C31.7083 49.3433 28.4583 50 25 50Z" fill="#FF6828"/>
</svg>
