<svg width="24" height="23" viewBox="0 0 24 23" fill="none" xmlns="http://www.w3.org/2000/svg">
<path d="M18.3436 5.65623H19.4008M1.42777 9.88519L2.26299 12.6171C2.39521 13.0502 2.66299 13.4294 3.02689 13.6989C3.39079 13.9684 3.8316 14.114 4.28443 14.1141H5.65673M22.5726 9.88519L21.7373 12.6171C21.6051 13.0502 21.3373 13.4294 20.9734 13.6989C20.6095 13.9684 20.1687 14.114 19.7159 14.1141H18.3436M9.35707 13.5855C9.35707 13.5855 9.35707 20.9862 5.65673 20.9862M14.6433 13.5855C14.6433 13.5855 14.6433 20.9862 18.3436 20.9862M12.0002 13.5855V20.9862M22.5726 2.06162V9.88519H1.42777V2.06162C1.42777 1.89338 1.4946 1.73203 1.61356 1.61307C1.73253 1.49411 1.89387 1.42727 2.06211 1.42727H21.9382C22.1065 1.42727 22.2678 1.49411 22.3868 1.61307C22.5057 1.73203 22.5726 1.89338 22.5726 2.06162V2.06162Z" stroke="#FF6828" stroke-width="2.8125" stroke-linecap="round" stroke-linejoin="round"/>
</svg>
