<svg width="220" height="40" viewBox="0 0 220 40" fill="none" xmlns="http://www.w3.org/2000/svg">
<path d="M35.4728 13.793L25.5548 12.3516L21.1212 3.36328C21.0001 3.11719 20.8009 2.91797 20.5548 2.79687C19.9376 2.49219 19.1876 2.74609 18.879 3.36328L14.4454 12.3516L4.52748 13.793C4.25404 13.832 4.00404 13.9609 3.81263 14.1562C3.58123 14.3941 3.45372 14.7141 3.45812 15.0459C3.46251 15.3777 3.59845 15.6942 3.83607 15.9258L11.0119 22.9219L9.31654 32.8008C9.27678 33.0306 9.30221 33.2669 9.38995 33.483C9.47768 33.6991 9.6242 33.8863 9.8129 34.0233C10.0016 34.1604 10.2249 34.2418 10.4576 34.2584C10.6902 34.275 10.9228 34.2261 11.129 34.1172L20.0001 29.4531L28.8712 34.1172C29.1134 34.2461 29.3947 34.2891 29.6642 34.2422C30.3439 34.125 30.8009 33.4805 30.6837 32.8008L28.9884 22.9219L36.1642 15.9258C36.3595 15.7344 36.4884 15.4844 36.5275 15.2109C36.6329 14.5273 36.1564 13.8945 35.4728 13.793Z" fill="#FFDC00"/>
<path d="M80.4728 13.793L70.5548 12.3516L66.1212 3.36328C66.0001 3.11719 65.8009 2.91797 65.5548 2.79687C64.9376 2.49219 64.1876 2.74609 63.879 3.36328L59.4454 12.3516L49.5275 13.793C49.254 13.832 49.004 13.9609 48.8126 14.1562C48.5812 14.3941 48.4537 14.7141 48.4581 15.0459C48.4625 15.3777 48.5985 15.6942 48.8361 15.9258L56.0119 22.9219L54.3165 32.8008C54.2768 33.0306 54.3022 33.2669 54.3899 33.483C54.4777 33.6991 54.6242 33.8863 54.8129 34.0233C55.0016 34.1604 55.2249 34.2418 55.4576 34.2584C55.6902 34.275 55.9228 34.2261 56.129 34.1172L65.0001 29.4531L73.8712 34.1172C74.1134 34.2461 74.3947 34.2891 74.6642 34.2422C75.3439 34.125 75.8009 33.4805 75.6837 32.8008L73.9884 22.9219L81.1642 15.9258C81.3595 15.7344 81.4884 15.4844 81.5275 15.2109C81.6329 14.5273 81.1564 13.8945 80.4728 13.793Z" fill="#FFDC00"/>
<path d="M125.473 13.793L115.555 12.3516L111.121 3.36328C111 3.11719 110.801 2.91797 110.555 2.79687C109.938 2.49219 109.188 2.74609 108.879 3.36328L104.445 12.3516L94.5275 13.793C94.254 13.832 94.004 13.9609 93.8126 14.1562C93.5812 14.3941 93.4537 14.7141 93.4581 15.0459C93.4625 15.3777 93.5985 15.6942 93.8361 15.9258L101.012 22.9219L99.3165 32.8008C99.2768 33.0306 99.3022 33.2669 99.3899 33.483C99.4777 33.6991 99.6242 33.8863 99.8129 34.0233C100.002 34.1604 100.225 34.2418 100.458 34.2584C100.69 34.275 100.923 34.2261 101.129 34.1172L110 29.4531L118.871 34.1172C119.113 34.2461 119.395 34.2891 119.664 34.2422C120.344 34.125 120.801 33.4805 120.684 32.8008L118.988 22.9219L126.164 15.9258C126.36 15.7344 126.488 15.4844 126.527 15.2109C126.633 14.5273 126.156 13.8945 125.473 13.793Z" fill="#FFDC00"/>
<path d="M170.473 13.793L160.555 12.3516L156.121 3.36328C156 3.11719 155.801 2.91797 155.555 2.79687C154.938 2.49219 154.188 2.74609 153.879 3.36328L149.445 12.3516L139.527 13.793C139.254 13.832 139.004 13.9609 138.813 14.1562C138.581 14.3941 138.454 14.7141 138.458 15.0459C138.463 15.3777 138.598 15.6942 138.836 15.9258L146.012 22.9219L144.317 32.8008C144.277 33.0306 144.302 33.2669 144.39 33.483C144.478 33.6991 144.624 33.8863 144.813 34.0233C145.002 34.1604 145.225 34.2418 145.458 34.2584C145.69 34.275 145.923 34.2261 146.129 34.1172L155 29.4531L163.871 34.1172C164.113 34.2461 164.395 34.2891 164.664 34.2422C165.344 34.125 165.801 33.4805 165.684 32.8008L163.988 22.9219L171.164 15.9258C171.36 15.7344 171.488 15.4844 171.527 15.2109C171.633 14.5273 171.156 13.8945 170.473 13.793Z" fill="#FFDC00"/>
<path d="M198.456 4.38834C198.99 2.98167 201.008 2.98167 201.543 4.38834L204.993 13.945C205.113 14.2563 205.325 14.5238 205.601 14.7122C205.876 14.9005 206.203 15.0009 206.536 15H215.015C216.581 15 217.265 16.95 216.033 17.905L210 23.3333C209.729 23.5411 209.532 23.8291 209.435 24.1561C209.339 24.4831 209.349 24.8322 209.463 25.1533L211.666 34.4917C212.203 35.9917 210.466 37.28 209.153 36.3567L200.958 31.1567C200.677 30.9594 200.343 30.8536 200 30.8536C199.657 30.8536 199.322 30.9594 199.041 31.1567L190.846 36.3567C189.535 37.28 187.796 35.99 188.333 34.4917L190.536 25.1533C190.651 24.8322 190.66 24.4831 190.564 24.1561C190.467 23.8291 190.27 23.5411 190 23.3333L183.966 17.905C182.733 16.95 183.42 15 184.983 15H193.461C193.795 15.0011 194.121 14.9008 194.397 14.7125C194.673 14.5241 194.884 14.2564 195.005 13.945L198.455 4.38834H198.456Z" stroke="#FFDC00" stroke-width="2" stroke-linecap="round" stroke-linejoin="round"/>
</svg>
