<svg width="145" height="25" viewBox="0 0 145 25" fill="none" xmlns="http://www.w3.org/2000/svg">
<path d="M22.1704 8.62062L15.9717 7.71974L13.2007 2.10206C13.125 1.94825 13.0005 1.82374 12.8467 1.74806C12.461 1.55763 11.9922 1.71632 11.7993 2.10206L9.02834 7.71974L2.82961 8.62062C2.65871 8.64503 2.50246 8.72559 2.38284 8.84767C2.23821 8.99631 2.15852 9.1963 2.16126 9.40368C2.16401 9.61105 2.24897 9.80886 2.39748 9.95362L6.88235 14.3262L5.82278 20.5005C5.79793 20.6441 5.81382 20.7918 5.86866 20.9269C5.92349 21.062 6.01507 21.1789 6.133 21.2646C6.25094 21.3503 6.39052 21.4012 6.53591 21.4115C6.6813 21.4219 6.82669 21.3913 6.95559 21.3233L12.5 18.4082L18.0445 21.3233C18.1958 21.4038 18.3716 21.4307 18.5401 21.4014C18.9649 21.3281 19.2505 20.9253 19.1773 20.5005L18.1177 14.3262L22.6026 9.95362C22.7246 9.83399 22.8052 9.67774 22.8296 9.50684C22.8955 9.0796 22.5977 8.68409 22.1704 8.62062Z" fill="#FF6828"/>
<path d="M52.1704 8.62062L45.9717 7.71974L43.2007 2.10206C43.125 1.94825 43.0005 1.82374 42.8467 1.74806C42.461 1.55763 41.9922 1.71632 41.7993 2.10206L39.0283 7.71974L32.8296 8.62062C32.6587 8.64503 32.5025 8.72559 32.3828 8.84767C32.2382 8.99631 32.1585 9.1963 32.1613 9.40368C32.164 9.61105 32.249 9.80886 32.3975 9.95362L36.8823 14.3262L35.8228 20.5005C35.7979 20.6441 35.8138 20.7918 35.8687 20.9269C35.9235 21.062 36.0151 21.1789 36.133 21.2646C36.2509 21.3503 36.3905 21.4012 36.5359 21.4115C36.6813 21.4219 36.8267 21.3913 36.9556 21.3233L42.5 18.4082L48.0445 21.3233C48.1958 21.4038 48.3716 21.4307 48.5401 21.4014C48.9649 21.3281 49.2505 20.9253 49.1773 20.5005L48.1177 14.3262L52.6026 9.95362C52.7246 9.83399 52.8052 9.67774 52.8296 9.50684C52.8955 9.0796 52.5977 8.68409 52.1704 8.62062Z" fill="#FF6828"/>
<path d="M82.1704 8.62062L75.9717 7.71974L73.2007 2.10206C73.125 1.94825 73.0005 1.82374 72.8467 1.74806C72.461 1.55763 71.9922 1.71632 71.7993 2.10206L69.0283 7.71974L62.8296 8.62062C62.6587 8.64503 62.5025 8.72559 62.3828 8.84767C62.2382 8.99631 62.1585 9.1963 62.1613 9.40368C62.164 9.61105 62.249 9.80886 62.3975 9.95362L66.8823 14.3262L65.8228 20.5005C65.7979 20.6441 65.8138 20.7918 65.8687 20.9269C65.9235 21.062 66.0151 21.1789 66.133 21.2646C66.2509 21.3503 66.3905 21.4012 66.5359 21.4115C66.6813 21.4219 66.8267 21.3913 66.9556 21.3233L72.5 18.4082L78.0445 21.3233C78.1958 21.4038 78.3716 21.4307 78.5401 21.4014C78.9649 21.3281 79.2505 20.9253 79.1773 20.5005L78.1177 14.3262L82.6026 9.95362C82.7246 9.83399 82.8052 9.67774 82.8296 9.50684C82.8955 9.0796 82.5977 8.68409 82.1704 8.62062Z" fill="#FF6828"/>
<path d="M112.17 8.62062L105.972 7.71974L103.201 2.10206C103.125 1.94825 103.001 1.82374 102.847 1.74806C102.461 1.55763 101.992 1.71632 101.799 2.10206L99.0283 7.71974L92.8296 8.62062C92.6587 8.64503 92.5025 8.72559 92.3828 8.84767C92.2382 8.99631 92.1585 9.1963 92.1613 9.40368C92.164 9.61105 92.249 9.80886 92.3975 9.95362L96.8823 14.3262L95.8228 20.5005C95.7979 20.6441 95.8138 20.7918 95.8687 20.9269C95.9235 21.062 96.0151 21.1789 96.133 21.2646C96.2509 21.3503 96.3905 21.4012 96.5359 21.4115C96.6813 21.4219 96.8267 21.3913 96.9556 21.3233L102.5 18.4082L108.044 21.3233C108.196 21.4038 108.372 21.4307 108.54 21.4014C108.965 21.3281 109.251 20.9253 109.177 20.5005L108.118 14.3262L112.603 9.95362C112.725 9.83399 112.805 9.67774 112.83 9.50684C112.896 9.0796 112.598 8.68409 112.17 8.62062Z" fill="#FF6828"/>
<path d="M131.535 2.74275C131.869 1.86358 133.13 1.86358 133.465 2.74275L135.621 8.71567C135.696 8.91023 135.829 9.07742 136.001 9.19514C136.173 9.31286 136.377 9.37559 136.585 9.37504H141.884C142.864 9.37504 143.291 10.5938 142.521 11.1907L138.75 14.5834C138.581 14.7132 138.458 14.8932 138.397 15.0976C138.337 15.302 138.343 15.5202 138.415 15.7209L139.792 21.5573C140.127 22.4948 139.042 23.3 138.221 22.723L133.099 19.473C132.924 19.3497 132.714 19.2835 132.5 19.2835C132.286 19.2835 132.076 19.3497 131.901 19.473L126.779 22.723C125.959 23.3 124.873 22.4938 125.208 21.5573L126.585 15.7209C126.657 15.5202 126.663 15.302 126.603 15.0976C126.542 14.8932 126.419 14.7132 126.25 14.5834L122.479 11.1907C121.708 10.5938 122.138 9.37504 123.115 9.37504H128.414C128.622 9.37574 128.826 9.31306 128.998 9.19532C129.171 9.07758 129.303 8.91032 129.378 8.71567L131.534 2.74275H131.535Z" stroke="#FF6828" stroke-width="2" stroke-linecap="round" stroke-linejoin="round"/>
</svg>
