<svg width="50" height="39" viewBox="0 0 50 39" fill="none" xmlns="http://www.w3.org/2000/svg">
<path d="M9.31387 19.0709C3.75817 19.0709 0 15.1993 0 9.46278C0 4.30062 4.31125 0 10.1506 0C16.5466 0 21.2726 5.16216 21.2726 13.0472C21.2726 30.9694 8.20415 38.1383 0 38.9998V31.1148C5.5628 30.1114 11.8169 24.5203 12.097 18.3512C11.8169 18.493 10.7072 19.0709 9.31387 19.0709ZM37.6774 19.0709C32.1181 19.0709 28.3635 15.1993 28.3635 9.46278C28.3635 4.30062 32.6748 0 38.5141 0C44.9101 0 49.6362 5.16216 49.6362 13.0472C49.6362 30.9694 36.5677 38.1383 28.3635 38.9998V31.1148C33.9263 30.1114 40.1805 24.5203 40.4606 18.3512C40.1805 18.493 39.0707 19.0709 37.6774 19.0709Z" fill="#FF6828"/>
</svg>
