<svg width="40" height="41" viewBox="0 0 40 41" fill="none" xmlns="http://www.w3.org/2000/svg">
<path d="M40.0002 40.0451L39.9882 19.9773C39.9882 8.94117 31.0302 0 19.9941 0C8.95798 0 0 8.94758 0 19.9845L0.160965 40.0731L4.76409 40.0619V19.9853C4.76409 11.3837 11.3805 4.41172 19.9797 4.41172C28.5805 4.41172 35.1953 11.3845 35.1953 19.9861V40.0451H40.0002ZM26.544 32.7784L26.4703 32.6439L26.5088 32.5942L26.544 32.5446C27.2327 32.2603 27.8582 31.9119 28.4171 31.4955C28.9761 31.0775 29.3028 30.4656 29.4966 29.6568C29.5183 29.5631 29.5895 29.3453 29.5895 29.0129V12.3134C29.5981 11.878 29.4911 11.4481 29.2796 11.0673C29.0426 10.6349 28.7695 10.2481 28.4067 9.90456C28.0552 9.56421 27.6692 9.32716 27.2279 9.09893C26.7875 8.8731 26.3758 8.81304 25.9698 8.81304H14.02C13.6388 8.81304 13.2288 8.86669 12.7867 9.08131C12.3455 9.29513 11.9394 9.54339 11.5727 9.87813C11.2222 10.1972 10.9258 10.5709 10.695 10.9849C10.48 11.3567 10.3678 11.779 10.3698 12.2085V29.1571C10.3698 29.4398 10.4131 29.7401 10.5524 30.046C10.6958 30.3575 10.8575 30.6482 11.0714 30.9173C11.286 31.196 11.511 31.4466 11.7617 31.6709C12.0115 31.8967 12.2486 32.0809 12.4888 32.2218C12.6049 32.2707 12.8115 32.3452 13.111 32.4389C13.4065 32.5342 13.5427 32.591 13.5203 32.6359L8.63125 40.0451H11.483L15.053 35.2401H24.9047L28.47 40.0451H31.3578L26.544 32.7784ZM15.9756 10.4147C15.9756 9.97423 16.336 9.61386 16.7764 9.61386H23.183C23.6234 9.61386 23.9838 9.97423 23.9838 10.4147V11.2155C23.9838 11.656 23.6234 12.0163 23.183 12.0163H16.7764C16.336 12.0163 15.9756 11.656 15.9756 11.2155V10.4147ZM12.8235 14.3267C12.9301 14.1009 13.0133 13.8958 13.1791 13.7029C13.3481 13.5123 13.5171 13.2384 13.7421 13.1191C13.9671 12.9989 14.1745 12.8171 14.4124 12.8171H25.5094C25.7232 12.8171 25.9354 12.9893 26.1508 13.0798C26.3654 13.1759 26.5608 13.3705 26.741 13.5355C26.9188 13.7012 26.9893 13.9135 27.0998 14.1033C27.2047 14.2891 27.1871 14.5245 27.1871 14.7383V18.5214C27.1871 18.7376 27.1975 18.9386 27.0806 19.142C26.962 19.3502 26.8419 19.5296 26.6497 19.6842C26.4583 19.8355 26.2765 19.8748 26.0627 19.9669C25.8481 20.0678 25.6511 20.0245 25.4397 20.0245H14.4837C14.4572 20.0245 14.398 20.099 14.3035 20.0798L14.0872 20.0486C13.6844 19.9781 13.437 19.7851 13.1263 19.4279C12.8179 19.0684 12.7723 18.7016 12.7723 18.2723V15.0258C12.7723 14.788 12.7178 14.5541 12.8235 14.3267ZM15.8563 29.7625C15.4887 30.1429 15.0282 30.3327 14.4837 30.3327C13.9367 30.3327 13.4898 30.1429 13.1439 29.7625C12.7979 29.3829 12.6265 28.9153 12.6265 28.3699C12.6265 27.8702 12.8067 27.4369 13.1623 27.0694C13.3314 26.8895 13.5364 26.7471 13.764 26.6515C13.9916 26.5559 14.2368 26.5092 14.4837 26.5144C15.0282 26.5144 15.4879 26.6898 15.8563 27.0293C16.2254 27.3801 16.4104 27.8317 16.4104 28.4075C16.4104 28.9313 16.2254 29.3837 15.8563 29.7625ZM24.027 29.7625C23.6603 29.3829 23.4753 28.9153 23.4753 28.3699C23.4753 27.8205 23.6699 27.3793 24.0631 27.0285C24.4427 26.6923 24.9334 26.5088 25.4405 26.5136C25.9834 26.5136 26.4303 26.6986 26.7747 27.0686C27.1214 27.4361 27.2944 27.8694 27.2944 28.3691C27.2944 28.9152 27.1174 29.3829 26.757 29.7617C26.4015 30.1421 25.949 30.3319 25.4012 30.3319C24.8543 30.3327 24.3978 30.1429 24.027 29.7625Z" fill="#FF5D24"/>
</svg>
