<svg width="34" height="32" viewBox="0 0 34 32" fill="none" xmlns="http://www.w3.org/2000/svg">
<path d="M30.3157 11.0417V0H26.9473V3.36841H6.73682V0H3.36841V11.0433C1.36421 12.2105 0 14.3595 0 16.8421V23.5789C0 24.0256 0.177443 24.454 0.493292 24.7698C0.809142 25.0857 1.23753 25.2631 1.68421 25.2631H3.36841V31.9999H6.73682V25.2631H26.9473V31.9999H30.3157V25.2631H31.9999C32.4466 25.2631 32.875 25.0857 33.1908 24.7698C33.5067 24.454 33.6841 24.0256 33.6841 23.5789V16.8421C33.6841 14.3595 32.3182 12.2105 30.3157 11.0417ZM15.1579 10.1052H6.73682V6.73682H15.1579V10.1052ZM26.9473 10.1052H18.5263V6.73682H26.9473V10.1052Z" fill="#FF5D24"/>
</svg>
