<svg width="35" height="35" viewBox="0 0 35 35" fill="none" xmlns="http://www.w3.org/2000/svg">
<path d="M17.5 23.3333C20.7216 23.3333 23.3333 20.7217 23.3333 17.5C23.3333 14.2783 20.7216 11.6667 17.5 11.6667C14.2783 11.6667 11.6666 14.2783 11.6666 17.5C11.6666 20.7217 14.2783 23.3333 17.5 23.3333Z" fill="#FF6828"/>
<path d="M18.9583 5.93395V2.91666H16.0416V5.93395C13.4754 6.26161 11.0905 7.43191 9.26121 9.26124C7.43188 11.0906 6.26158 13.4754 5.93392 16.0417H2.91663V18.9583H5.93392C6.2611 21.5247 7.43124 23.9099 9.26066 25.7393C11.0901 27.5687 13.4752 28.7388 16.0416 29.066V32.0833H18.9583V29.066C21.5248 28.7391 23.9101 27.569 25.7395 25.7396C27.569 23.9101 28.7391 21.5248 29.066 18.9583H32.0833V16.0417H29.066C28.7388 13.4752 27.5687 11.0901 25.7393 9.26069C23.9098 7.43127 21.5247 6.26113 18.9583 5.93395ZM17.5 26.25C12.6743 26.25 8.74996 22.3256 8.74996 17.5C8.74996 12.6744 12.6743 8.74999 17.5 8.74999C22.3256 8.74999 26.25 12.6744 26.25 17.5C26.25 22.3256 22.3256 26.25 17.5 26.25Z" fill="#FF6828"/>
</svg>
