<svg width="52" height="39" viewBox="0 0 52 39" fill="none" xmlns="http://www.w3.org/2000/svg">
<path d="M19.0825 19.4419C19.0825 21.2133 19.7862 22.9123 21.0389 24.1649C22.2915 25.4175 23.9904 26.1213 25.7619 26.1213C27.5334 26.1213 29.2323 25.4175 30.485 24.1649C31.7376 22.9123 32.4413 21.2133 32.4413 19.4419C32.4413 17.6704 31.7376 15.9714 30.485 14.7188C29.2323 13.4662 27.5334 12.7624 25.7619 12.7624C23.9904 12.7624 22.2915 13.4662 21.0389 14.7188C19.7862 15.9714 19.0825 17.6704 19.0825 19.4419ZM51.6566 17.9032C46.0029 5.99358 37.4569 0 26.0005 0C14.5381 0 5.99802 5.99358 0.344379 17.9092C0.117609 18.3894 0 18.9138 0 19.4448C0 19.9759 0.117609 20.5003 0.344379 20.9805C5.99802 32.8901 14.5441 38.8837 26.0005 38.8837C37.4628 38.8837 46.0029 32.8901 51.6566 20.9745C52.1158 20.0084 52.1158 18.8872 51.6566 17.9032ZM25.7619 29.9381C19.9651 29.9381 15.2657 25.2386 15.2657 19.4419C15.2657 13.6451 19.9651 8.94564 25.7619 8.94564C31.5587 8.94564 36.2581 13.6451 36.2581 19.4419C36.2581 25.2386 31.5587 29.9381 25.7619 29.9381Z" fill="#FF5D24"/>
</svg>
