<svg width="34" height="30" viewBox="0 0 34 30" fill="none" xmlns="http://www.w3.org/2000/svg">
<path fill-rule="evenodd" clip-rule="evenodd" d="M15 0C13.6739 0 12.4021 0.526784 11.4645 1.46447C10.5268 2.40215 10 3.67392 10 5V6.66667H5C3.67392 6.66667 2.40215 7.19345 1.46447 8.13113C0.526784 9.06881 0 10.3406 0 11.6667V25C0 26.3261 0.526784 27.5979 1.46447 28.5355C2.40215 29.4732 3.67392 30 5 30H28.3333C29.6594 30 30.9312 29.4732 31.8689 28.5355C32.8065 27.5979 33.3333 26.3261 33.3333 25V11.6667C33.3333 10.3406 32.8065 9.06881 31.8689 8.13113C30.9312 7.19345 29.6594 6.66667 28.3333 6.66667H23.3333V5C23.3333 3.67392 22.8065 2.40215 21.8689 1.46447C20.9312 0.526784 19.6594 0 18.3333 0H15ZM20 6.66667H13.3333V5C13.3333 4.55797 13.5089 4.13405 13.8215 3.82149C14.134 3.50893 14.558 3.33333 15 3.33333H18.3333C18.7754 3.33333 19.1993 3.50893 19.5118 3.82149C19.8244 4.13405 20 4.55797 20 5V6.66667Z" fill="#FF6828"/>
</svg>
