<svg width="40" height="40" viewBox="0 0 40 40" fill="none" xmlns="http://www.w3.org/2000/svg">
<path d="M2.5 5C2.5 3.67392 3.02678 2.40215 3.96447 1.46447C4.90215 0.526784 6.17392 0 7.5 0L22.5 0C23.8261 0 25.0979 0.526784 26.0355 1.46447C26.9732 2.40215 27.5 3.67392 27.5 5V25C28.8261 25 30.0979 25.5268 31.0355 26.4645C31.9732 27.4021 32.5 28.6739 32.5 30V31.25C32.5 31.5815 32.6317 31.8995 32.8661 32.1339C33.1005 32.3683 33.4185 32.5 33.75 32.5C34.0815 32.5 34.3995 32.3683 34.6339 32.1339C34.8683 31.8995 35 31.5815 35 31.25V20H33.75C33.4185 20 33.1005 19.8683 32.8661 19.6339C32.6317 19.3995 32.5 19.0815 32.5 18.75V10.9375C32.5 10.606 32.6317 10.288 32.8661 10.0536C33.1005 9.8192 33.4185 9.6875 33.75 9.6875H37.4875C37.46 8.4975 37.355 7.4525 36.985 6.6325C36.7869 6.15571 36.4418 5.75458 36 5.4875C35.54 5.2125 34.84 5 33.75 5C33.4185 5 33.1005 4.8683 32.8661 4.63388C32.6317 4.39946 32.5 4.08152 32.5 3.75C32.5 3.41848 32.6317 3.10054 32.8661 2.86612C33.1005 2.6317 33.4185 2.5 33.75 2.5C35.16 2.5 36.335 2.775 37.28 3.34C38.2375 3.91 38.865 4.7175 39.265 5.6075C40.0025 7.245 40 9.27 40 10.81V18.75C40 19.0815 39.8683 19.3995 39.6339 19.6339C39.3995 19.8683 39.0815 20 38.75 20H37.5V31.25C37.5 32.2446 37.1049 33.1984 36.4016 33.9016C35.6984 34.6049 34.7446 35 33.75 35C32.7554 35 31.8016 34.6049 31.0983 33.9016C30.3951 33.1984 30 32.2446 30 31.25V30C30 29.337 29.7366 28.7011 29.2678 28.2322C28.7989 27.7634 28.163 27.5 27.5 27.5V37.5H28.75C29.0815 37.5 29.3995 37.6317 29.6339 37.8661C29.8683 38.1005 30 38.4185 30 38.75C30 39.0815 29.8683 39.3995 29.6339 39.6339C29.3995 39.8683 29.0815 40 28.75 40H1.25C0.918479 40 0.600537 39.8683 0.366117 39.6339C0.131696 39.3995 0 39.0815 0 38.75C0 38.4185 0.131696 38.1005 0.366117 37.8661C0.600537 37.6317 0.918479 37.5 1.25 37.5H2.5V5ZM8.75 5C8.41848 5 8.10054 5.1317 7.86612 5.36612C7.6317 5.60054 7.5 5.91848 7.5 6.25V18.75C7.5 19.0815 7.6317 19.3995 7.86612 19.6339C8.10054 19.8683 8.41848 20 8.75 20H21.25C21.5815 20 21.8995 19.8683 22.1339 19.6339C22.3683 19.3995 22.5 19.0815 22.5 18.75V6.25C22.5 5.91848 22.3683 5.60054 22.1339 5.36612C21.8995 5.1317 21.5815 5 21.25 5H8.75Z" fill="#FF5D24"/>
</svg>
