<svg width="27" height="27" viewBox="0 0 27 27" fill="none" xmlns="http://www.w3.org/2000/svg">
<path d="M6.74992 3.37496C6.74992 4.27005 6.39434 5.12849 5.76141 5.76141C5.12849 6.39434 4.27005 6.74992 3.37496 6.74992C2.47986 6.74992 1.62143 6.39434 0.988502 5.76141C0.355575 5.12849 0 4.27005 0 3.37496C0 2.47986 0.355575 1.62143 0.988502 0.988502C1.62143 0.355575 2.47986 0 3.37496 0C4.27005 0 5.12849 0.355575 5.76141 0.988502C6.39434 1.62143 6.74992 2.47986 6.74992 3.37496ZM6.74992 13.4998C6.74992 14.3949 6.39434 15.2534 5.76141 15.8863C5.12849 16.5192 4.27005 16.8748 3.37496 16.8748C2.47986 16.8748 1.62143 16.5192 0.988502 15.8863C0.355575 15.2534 0 14.3949 0 13.4998C0 12.6047 0.355575 11.7463 0.988502 11.1134C1.62143 10.4805 2.47986 10.1249 3.37496 10.1249C4.27005 10.1249 5.12849 10.4805 5.76141 11.1134C6.39434 11.7463 6.74992 12.6047 6.74992 13.4998ZM3.37496 26.9997C4.27005 26.9997 5.12849 26.6441 5.76141 26.0112C6.39434 25.3782 6.74992 24.5198 6.74992 23.6247C6.74992 22.7296 6.39434 21.8712 5.76141 21.2383C5.12849 20.6053 4.27005 20.2498 3.37496 20.2498C2.47986 20.2498 1.62143 20.6053 0.988502 21.2383C0.355575 21.8712 0 22.7296 0 23.6247C0 24.5198 0.355575 25.3782 0.988502 26.0112C1.62143 26.6441 2.47986 26.9997 3.37496 26.9997ZM16.8748 3.37496C16.8748 4.27005 16.5192 5.12849 15.8863 5.76141C15.2534 6.39434 14.3949 6.74992 13.4998 6.74992C12.6047 6.74992 11.7463 6.39434 11.1134 5.76141C10.4805 5.12849 10.1249 4.27005 10.1249 3.37496C10.1249 2.47986 10.4805 1.62143 11.1134 0.988502C11.7463 0.355575 12.6047 0 13.4998 0C14.3949 0 15.2534 0.355575 15.8863 0.988502C16.5192 1.62143 16.8748 2.47986 16.8748 3.37496ZM13.4998 16.8748C14.3949 16.8748 15.2534 16.5192 15.8863 15.8863C16.5192 15.2534 16.8748 14.3949 16.8748 13.4998C16.8748 12.6047 16.5192 11.7463 15.8863 11.1134C15.2534 10.4805 14.3949 10.1249 13.4998 10.1249C12.6047 10.1249 11.7463 10.4805 11.1134 11.1134C10.4805 11.7463 10.1249 12.6047 10.1249 13.4998C10.1249 14.3949 10.4805 15.2534 11.1134 15.8863C11.7463 16.5192 12.6047 16.8748 13.4998 16.8748ZM16.8748 23.6247C16.8748 24.5198 16.5192 25.3782 15.8863 26.0112C15.2534 26.6441 14.3949 26.9997 13.4998 26.9997C12.6047 26.9997 11.7463 26.6441 11.1134 26.0112C10.4805 25.3782 10.1249 24.5198 10.1249 23.6247C10.1249 22.7296 10.4805 21.8712 11.1134 21.2383C11.7463 20.6053 12.6047 20.2498 13.4998 20.2498C14.3949 20.2498 15.2534 20.6053 15.8863 21.2383C16.5192 21.8712 16.8748 22.7296 16.8748 23.6247ZM23.6247 6.74992C24.5198 6.74992 25.3782 6.39434 26.0112 5.76141C26.6441 5.12849 26.9997 4.27005 26.9997 3.37496C26.9997 2.47986 26.6441 1.62143 26.0112 0.988502C25.3782 0.355575 24.5198 0 23.6247 0C22.7296 0 21.8712 0.355575 21.2383 0.988502C20.6053 1.62143 20.2498 2.47986 20.2498 3.37496C20.2498 4.27005 20.6053 5.12849 21.2383 5.76141C21.8712 6.39434 22.7296 6.74992 23.6247 6.74992ZM26.9997 13.4998C26.9997 14.3949 26.6441 15.2534 26.0112 15.8863C25.3782 16.5192 24.5198 16.8748 23.6247 16.8748C22.7296 16.8748 21.8712 16.5192 21.2383 15.8863C20.6053 15.2534 20.2498 14.3949 20.2498 13.4998C20.2498 12.6047 20.6053 11.7463 21.2383 11.1134C21.8712 10.4805 22.7296 10.1249 23.6247 10.1249C24.5198 10.1249 25.3782 10.4805 26.0112 11.1134C26.6441 11.7463 26.9997 12.6047 26.9997 13.4998ZM23.6247 26.9997C24.5198 26.9997 25.3782 26.6441 26.0112 26.0112C26.6441 25.3782 26.9997 24.5198 26.9997 23.6247C26.9997 22.7296 26.6441 21.8712 26.0112 21.2383C25.3782 20.6053 24.5198 20.2498 23.6247 20.2498C22.7296 20.2498 21.8712 20.6053 21.2383 21.2383C20.6053 21.8712 20.2498 22.7296 20.2498 23.6247C20.2498 24.5198 20.6053 25.3782 21.2383 26.0112C21.8712 26.6441 22.7296 26.9997 23.6247 26.9997Z" fill="#FF5D24"/>
</svg>
