<svg width="35" height="27" viewBox="0 0 35 27" fill="none" xmlns="http://www.w3.org/2000/svg">
<path d="M34.125 23.625H0.874999C0.391562 23.625 0 24.0026 0 24.4688V26.1563C0 26.6224 0.391562 27 0.874999 27H34.125C34.6084 27 35 26.6224 35 26.1563V24.4688C35 24.0026 34.6084 23.625 34.125 23.625ZM2.45054 10.8454L7.30351 15.0641C7.7017 15.4108 8.17883 15.6625 8.6964 15.7987L24.4245 19.9304C25.8726 20.3107 27.4083 20.3903 28.8542 20.0022C30.4768 19.5661 31.2298 18.8837 31.4382 18.119C31.6476 17.3544 31.3436 16.3941 30.1601 15.2207C29.1057 14.1756 27.7347 13.4916 26.2866 13.1114L20.954 11.7108L15.4656 1.59367C15.383 1.28729 15.1402 1.04787 14.828 0.965607L11.2683 0.0306271C10.6908 -0.121248 10.1254 0.311174 10.1358 0.897579L12.7564 9.55708L7.16734 8.08896L5.65851 4.50935C5.55296 4.25148 5.32984 4.05742 5.05585 3.9857L2.88312 3.41459C2.31765 3.26588 1.76039 3.67826 1.75 4.25201L1.76258 9.61931C1.77297 10.0892 2.09234 10.5337 2.45054 10.8454Z" fill="#FF6828"/>
</svg>
