<svg width="34" height="30" viewBox="0 0 34 30" fill="none" xmlns="http://www.w3.org/2000/svg">
<path d="M15.0833 19.1667L22 14.75C22.25 14.5833 22.4378 14.375 22.5633 14.125C22.6878 13.875 22.75 13.6111 22.75 13.3333C22.75 13.0556 22.6878 12.7917 22.5633 12.5417C22.4378 12.2917 22.25 12.0833 22 11.9167L15.0833 7.5C14.5278 7.13889 13.9583 7.11111 13.375 7.41667C12.7917 7.72222 12.5 8.20833 12.5 8.875V17.7917C12.5 18.4583 12.7917 18.9444 13.375 19.25C13.9583 19.5556 14.5278 19.5278 15.0833 19.1667ZM11.6667 30C11.1944 30 10.7989 29.84 10.48 29.52C10.16 29.2011 10 28.8056 10 28.3333V26.6667H3.33333C2.41667 26.6667 1.63222 26.3406 0.98 25.6883C0.326667 25.035 0 24.25 0 23.3333V3.33333C0 2.41667 0.326667 1.63167 0.98 0.978333C1.63222 0.326111 2.41667 0 3.33333 0H30C30.9167 0 31.7017 0.326111 32.355 0.978333C33.0072 1.63167 33.3333 2.41667 33.3333 3.33333V23.3333C33.3333 24.25 33.0072 25.035 32.355 25.6883C31.7017 26.3406 30.9167 26.6667 30 26.6667H23.3333V28.3333C23.3333 28.8056 23.1739 29.2011 22.855 29.52C22.535 29.84 22.1389 30 21.6667 30H11.6667Z" fill="#FF6828"/>
</svg>
