<svg width="27" height="27" viewBox="0 0 27 27" fill="none" xmlns="http://www.w3.org/2000/svg">
<path fill-rule="evenodd" clip-rule="evenodd" d="M21.75 25.5C22.7445 25.5 23.6983 25.1049 24.4016 24.4016C25.1049 23.6984 25.5 22.7446 25.5 21.75C25.5 20.7554 25.1049 19.8016 24.4016 19.0983C23.6983 18.3951 22.7445 18 21.75 18C20.7554 18 19.8016 18.3951 19.0983 19.0983C18.395 19.8016 18 20.7554 18 21.75C18 22.7446 18.395 23.6984 19.0983 24.4016C19.8016 25.1049 20.7554 25.5 21.75 25.5ZM21.75 27C23.1423 27 24.4777 26.4469 25.4623 25.4623C26.4468 24.4777 27 23.1424 27 21.75C27 20.3576 26.4468 19.0222 25.4623 18.0377C24.4777 17.0531 23.1423 16.5 21.75 16.5C20.3576 16.5 19.0222 17.0531 18.0376 18.0377C17.0531 19.0222 16.5 20.3576 16.5 21.75C16.5 23.1424 17.0531 24.4777 18.0376 25.4623C19.0222 26.4469 20.3576 27 21.75 27Z" fill="#FF6828"/>
<path fill-rule="evenodd" clip-rule="evenodd" d="M21.75 19.125C21.9489 19.125 22.1396 19.204 22.2803 19.3447C22.4209 19.4853 22.5 19.6761 22.5 19.875V21.4395L23.0302 21.9697C23.1668 22.1112 23.2424 22.3007 23.2407 22.4973C23.239 22.6939 23.1601 22.8821 23.0211 23.0211C22.882 23.1602 22.6939 23.239 22.4973 23.2408C22.3006 23.2425 22.1112 23.1669 21.9697 23.0303L21 22.0605V19.875C21 19.6761 21.079 19.4853 21.2196 19.3447C21.3603 19.204 21.551 19.125 21.75 19.125ZM5.99996 12.75H4.49996V14.25H5.99996V12.75ZM4.49996 11.25C4.10213 11.25 3.7206 11.408 3.4393 11.6893C3.15799 11.9706 2.99996 12.3522 2.99996 12.75V14.25C2.99996 14.6478 3.15799 15.0294 3.4393 15.3107C3.7206 15.592 4.10213 15.75 4.49996 15.75H5.99996C6.39778 15.75 6.77931 15.592 7.06062 15.3107C7.34192 15.0294 7.49996 14.6478 7.49996 14.25V12.75C7.49996 12.3522 7.34192 11.9706 7.06062 11.6893C6.77931 11.408 6.39778 11.25 5.99996 11.25H4.49996ZM12 12.75H10.5V14.25H12V12.75ZM10.5 11.25C10.1021 11.25 9.7206 11.408 9.4393 11.6893C9.15799 11.9706 8.99996 12.3522 8.99996 12.75V14.25C8.99996 14.6478 9.15799 15.0294 9.4393 15.3107C9.7206 15.592 10.1021 15.75 10.5 15.75H12C12.3978 15.75 12.7793 15.592 13.0606 15.3107C13.3419 15.0294 13.5 14.6478 13.5 14.25V12.75C13.5 12.3522 13.3419 11.9706 13.0606 11.6893C12.7793 11.408 12.3978 11.25 12 11.25H10.5ZM18 12.75H16.5V14.25H18V12.75ZM16.5 11.25C16.1021 11.25 15.7206 11.408 15.4393 11.6893C15.158 11.9706 15 12.3522 15 12.75V14.25C15 14.6478 15.158 15.0294 15.4393 15.3107C15.7206 15.592 16.1021 15.75 16.5 15.75H18C18.3978 15.75 18.7793 15.592 19.0606 15.3107C19.3419 15.0294 19.5 14.6478 19.5 14.25V12.75C19.5 12.3522 19.3419 11.9706 19.0606 11.6893C18.7793 11.408 18.3978 11.25 18 11.25H16.5ZM5.99996 18.75H4.49996V20.25H5.99996V18.75ZM4.49996 17.25C4.10213 17.25 3.7206 17.408 3.4393 17.6893C3.15799 17.9706 2.99996 18.3522 2.99996 18.75V20.25C2.99996 20.6478 3.15799 21.0294 3.4393 21.3107C3.7206 21.592 4.10213 21.75 4.49996 21.75H5.99996C6.39778 21.75 6.77931 21.592 7.06062 21.3107C7.34192 21.0294 7.49996 20.6478 7.49996 20.25V18.75C7.49996 18.3522 7.34192 17.9706 7.06062 17.6893C6.77931 17.408 6.39778 17.25 5.99996 17.25H4.49996ZM12 18.75H10.5V20.25H12V18.75ZM10.5 17.25C10.1021 17.25 9.7206 17.408 9.4393 17.6893C9.15799 17.9706 8.99996 18.3522 8.99996 18.75V20.25C8.99996 20.6478 9.15799 21.0294 9.4393 21.3107C9.7206 21.592 10.1021 21.75 10.5 21.75H12C12.3978 21.75 12.7793 21.592 13.0606 21.3107C13.3419 21.0294 13.5 20.6478 13.5 20.25V18.75C13.5 18.3522 13.3419 17.9706 13.0606 17.6893C12.7793 17.408 12.3978 17.25 12 17.25H10.5Z" fill="#FF6828"/>
<path fill-rule="evenodd" clip-rule="evenodd" d="M1.5 4.5C1.5 4.30109 1.57902 4.11032 1.71967 3.96967C1.86032 3.82902 2.05109 3.75 2.25 3.75H6V2.25H2.25C1.65326 2.25 1.08097 2.48705 0.65901 2.90901C0.237053 3.33097 0 3.90326 0 4.5V22.5C0 23.0967 0.237053 23.669 0.65901 24.091C1.08097 24.5129 1.65326 24.75 2.25 24.75H17.4412C17.1214 24.2919 16.8771 23.7855 16.7175 23.25H2.25C2.05109 23.25 1.86032 23.171 1.71967 23.0303C1.57902 22.8897 1.5 22.6989 1.5 22.5V4.5ZM21 16.5525C21.4975 16.4813 22.0025 16.4813 22.5 16.5525V4.5C22.5 3.90326 22.2629 3.33097 21.841 2.90901C21.419 2.48705 20.8467 2.25 20.25 2.25H18V3.75H20.25C20.4489 3.75 20.6397 3.82902 20.7803 3.96967C20.921 4.11032 21 4.30109 21 4.5V16.5525ZM7.5 3.75H15.4223V2.25H7.5V3.75Z" fill="#FF6828"/>
<path fill-rule="evenodd" clip-rule="evenodd" d="M16.5 2.25H7.49996V4.5C7.49996 4.69891 7.42094 4.88968 7.28029 5.03033C7.13964 5.17098 6.94887 5.25 6.74996 5.25C6.55105 5.25 6.36028 5.17098 6.21963 5.03033C6.07898 4.88968 5.99996 4.69891 5.99996 4.5V2.25H2.24996C1.85213 2.25 1.4706 2.40804 1.1893 2.68934C0.907993 2.97064 0.749958 3.35218 0.749958 3.75V7.5C0.749958 7.89783 0.907993 8.27936 1.1893 8.56066C1.4706 8.84196 1.85213 9 2.24996 9H20.25C20.6478 9 21.0293 8.84196 21.3106 8.56066C21.5919 8.27936 21.75 7.89783 21.75 7.5V3.75C21.75 3.35218 21.5919 2.97064 21.3106 2.68934C21.0293 2.40804 20.6478 2.25 20.25 2.25H18V4.5C18 4.69891 17.9209 4.88968 17.7803 5.03033C17.6396 5.17098 17.4489 5.25 17.25 5.25C17.051 5.25 16.8603 5.17098 16.7196 5.03033C16.579 4.88968 16.5 4.69891 16.5 4.5V2.25Z" fill="#FF6828"/>
<path fill-rule="evenodd" clip-rule="evenodd" d="M22.5 8.99999H1.50004V7.49999H22.5V8.99999Z" fill="#FF6828"/>
<path d="M4.5 0.75C4.5 0.551088 4.57902 0.360322 4.71967 0.21967C4.86032 0.0790178 5.05109 0 5.25 0C5.44891 0 5.63968 0.0790178 5.78033 0.21967C5.92098 0.360322 6 0.551088 6 0.75V3.75C6 3.94891 5.92098 4.13968 5.78033 4.28033C5.63968 4.42098 5.44891 4.5 5.25 4.5C5.05109 4.5 4.86032 4.42098 4.71967 4.28033C4.57902 4.13968 4.5 3.94891 4.5 3.75V0.75ZM15 0.75C15 0.551088 15.079 0.360322 15.2197 0.21967C15.3603 0.0790178 15.5511 0 15.75 0C15.9489 0 16.1397 0.0790178 16.2803 0.21967C16.421 0.360322 16.5 0.551088 16.5 0.75V3.75C16.5 3.94891 16.421 4.13968 16.2803 4.28033C16.1397 4.42098 15.9489 4.5 15.75 4.5C15.5511 4.5 15.3603 4.42098 15.2197 4.28033C15.079 4.13968 15 3.94891 15 3.75V0.75Z" fill="#FF6828"/>
</svg>
