<svg width="35" height="275" viewBox="0 0 35 275" fill="none" xmlns="http://www.w3.org/2000/svg">
<g clip-path="url(#clip0_152_196)">
<path d="M17.5 32.8125C13.4389 32.8125 9.54408 31.1992 6.67243 28.3276C3.80078 25.4559 2.1875 21.5611 2.1875 17.5C2.1875 13.4389 3.80078 9.54408 6.67243 6.67243C9.54408 3.80078 13.4389 2.1875 17.5 2.1875C21.5611 2.1875 25.4559 3.80078 28.3276 6.67243C31.1992 9.54408 32.8125 13.4389 32.8125 17.5C32.8125 21.5611 31.1992 25.4559 28.3276 28.3276C25.4559 31.1992 21.5611 32.8125 17.5 32.8125ZM17.5 35C22.1413 35 26.5925 33.1563 29.8744 29.8744C33.1563 26.5925 35 22.1413 35 17.5C35 12.8587 33.1563 8.40752 29.8744 5.12563C26.5925 1.84374 22.1413 0 17.5 0C12.8587 0 8.40752 1.84374 5.12563 5.12563C1.84374 8.40752 0 12.8587 0 17.5C0 22.1413 1.84374 26.5925 5.12563 29.8744C8.40752 33.1563 12.8587 35 17.5 35Z" fill="#FF5D24"/>
<path d="M23.997 10.8719C23.9814 10.887 23.9668 10.9031 23.9533 10.92L16.3561 20.5997L11.7776 16.0191C11.4666 15.7293 11.0553 15.5715 10.6302 15.579C10.2052 15.5865 9.79967 15.7587 9.49908 16.0593C9.19849 16.3599 9.02631 16.7654 9.01881 17.1904C9.01131 17.6155 9.16908 18.0268 9.45888 18.3378L15.247 24.1281C15.4029 24.2838 15.5886 24.4064 15.793 24.4887C15.9973 24.5711 16.2162 24.6114 16.4364 24.6073C16.6567 24.6032 16.8739 24.5548 17.0751 24.465C17.2763 24.3751 17.4573 24.2457 17.6073 24.0844L26.3398 13.1688C26.6372 12.8567 26.7997 12.4401 26.7924 12.0091C26.785 11.5781 26.6084 11.1673 26.3006 10.8655C25.9928 10.5637 25.5785 10.3952 25.1475 10.3964C24.7164 10.3976 24.3031 10.5684 23.997 10.8719Z" fill="#FF5D24"/>
</g>
<g clip-path="url(#clip1_152_196)">
<path d="M17.5 92.8125C13.4389 92.8125 9.54408 91.1992 6.67243 88.3276C3.80078 85.4559 2.1875 81.5611 2.1875 77.5C2.1875 73.4389 3.80078 69.5441 6.67243 66.6724C9.54408 63.8008 13.4389 62.1875 17.5 62.1875C21.5611 62.1875 25.4559 63.8008 28.3276 66.6724C31.1992 69.5441 32.8125 73.4389 32.8125 77.5C32.8125 81.5611 31.1992 85.4559 28.3276 88.3276C25.4559 91.1992 21.5611 92.8125 17.5 92.8125ZM17.5 95C22.1413 95 26.5925 93.1563 29.8744 89.8744C33.1563 86.5925 35 82.1413 35 77.5C35 72.8587 33.1563 68.4075 29.8744 65.1256C26.5925 61.8437 22.1413 60 17.5 60C12.8587 60 8.40752 61.8437 5.12563 65.1256C1.84374 68.4075 0 72.8587 0 77.5C0 82.1413 1.84374 86.5925 5.12563 89.8744C8.40752 93.1563 12.8587 95 17.5 95Z" fill="#FF5D24"/>
<path d="M23.997 70.8719C23.9814 70.887 23.9668 70.9031 23.9533 70.92L16.3561 80.5997L11.7776 76.0191C11.4666 75.7293 11.0553 75.5715 10.6302 75.579C10.2052 75.5865 9.79967 75.7587 9.49908 76.0593C9.19849 76.3599 9.02631 76.7654 9.01881 77.1904C9.01131 77.6155 9.16908 78.0268 9.45888 78.3378L15.247 84.1281C15.4029 84.2838 15.5886 84.4064 15.793 84.4887C15.9973 84.5711 16.2162 84.6114 16.4364 84.6073C16.6567 84.6032 16.8739 84.5548 17.0751 84.465C17.2763 84.3751 17.4573 84.2457 17.6073 84.0844L26.3398 73.1688C26.6372 72.8567 26.7997 72.4401 26.7924 72.0091C26.785 71.5781 26.6084 71.1673 26.3006 70.8655C25.9928 70.5637 25.5785 70.3952 25.1475 70.3964C24.7164 70.3976 24.3031 70.5684 23.997 70.8719Z" fill="#FF5D24"/>
</g>
<g clip-path="url(#clip2_152_196)">
<path d="M17.5 152.812C13.4389 152.812 9.54408 151.199 6.67243 148.328C3.80078 145.456 2.1875 141.561 2.1875 137.5C2.1875 133.439 3.80078 129.544 6.67243 126.672C9.54408 123.801 13.4389 122.188 17.5 122.188C21.5611 122.188 25.4559 123.801 28.3276 126.672C31.1992 129.544 32.8125 133.439 32.8125 137.5C32.8125 141.561 31.1992 145.456 28.3276 148.328C25.4559 151.199 21.5611 152.812 17.5 152.812ZM17.5 155C22.1413 155 26.5925 153.156 29.8744 149.874C33.1563 146.592 35 142.141 35 137.5C35 132.859 33.1563 128.408 29.8744 125.126C26.5925 121.844 22.1413 120 17.5 120C12.8587 120 8.40752 121.844 5.12563 125.126C1.84374 128.408 0 132.859 0 137.5C0 142.141 1.84374 146.592 5.12563 149.874C8.40752 153.156 12.8587 155 17.5 155Z" fill="#FF5D24"/>
<path d="M23.997 130.872C23.9814 130.887 23.9668 130.903 23.9533 130.92L16.3561 140.6L11.7776 136.019C11.4666 135.729 11.0553 135.571 10.6302 135.579C10.2052 135.586 9.79967 135.759 9.49908 136.059C9.19849 136.36 9.02631 136.765 9.01881 137.19C9.01131 137.615 9.16908 138.027 9.45888 138.338L15.247 144.128C15.4029 144.284 15.5886 144.406 15.793 144.489C15.9973 144.571 16.2162 144.611 16.4364 144.607C16.6567 144.603 16.8739 144.555 17.0751 144.465C17.2763 144.375 17.4573 144.246 17.6073 144.084L26.3398 133.169C26.6372 132.857 26.7997 132.44 26.7924 132.009C26.785 131.578 26.6084 131.167 26.3006 130.866C25.9928 130.564 25.5785 130.395 25.1475 130.396C24.7164 130.398 24.3031 130.568 23.997 130.872Z" fill="#FF5D24"/>
</g>
<g clip-path="url(#clip3_152_196)">
<path d="M17.5 212.812C13.4389 212.812 9.54408 211.199 6.67243 208.328C3.80078 205.456 2.1875 201.561 2.1875 197.5C2.1875 193.439 3.80078 189.544 6.67243 186.672C9.54408 183.801 13.4389 182.188 17.5 182.188C21.5611 182.188 25.4559 183.801 28.3276 186.672C31.1992 189.544 32.8125 193.439 32.8125 197.5C32.8125 201.561 31.1992 205.456 28.3276 208.328C25.4559 211.199 21.5611 212.812 17.5 212.812ZM17.5 215C22.1413 215 26.5925 213.156 29.8744 209.874C33.1563 206.592 35 202.141 35 197.5C35 192.859 33.1563 188.408 29.8744 185.126C26.5925 181.844 22.1413 180 17.5 180C12.8587 180 8.40752 181.844 5.12563 185.126C1.84374 188.408 0 192.859 0 197.5C0 202.141 1.84374 206.592 5.12563 209.874C8.40752 213.156 12.8587 215 17.5 215Z" fill="#FF5D24"/>
<path d="M23.997 190.872C23.9814 190.887 23.9668 190.903 23.9533 190.92L16.3561 200.6L11.7776 196.019C11.4666 195.729 11.0553 195.571 10.6302 195.579C10.2052 195.586 9.79967 195.759 9.49908 196.059C9.19849 196.36 9.02631 196.765 9.01881 197.19C9.01131 197.615 9.16908 198.027 9.45888 198.338L15.247 204.128C15.4029 204.284 15.5886 204.406 15.793 204.489C15.9973 204.571 16.2162 204.611 16.4364 204.607C16.6567 204.603 16.8739 204.555 17.0751 204.465C17.2763 204.375 17.4573 204.246 17.6073 204.084L26.3398 193.169C26.6372 192.857 26.7997 192.44 26.7924 192.009C26.785 191.578 26.6084 191.167 26.3006 190.866C25.9928 190.564 25.5785 190.395 25.1475 190.396C24.7164 190.398 24.3031 190.568 23.997 190.872Z" fill="#FF5D24"/>
</g>
<g clip-path="url(#clip4_152_196)">
<path d="M17.5 272.812C13.4389 272.812 9.54408 271.199 6.67243 268.328C3.80078 265.456 2.1875 261.561 2.1875 257.5C2.1875 253.439 3.80078 249.544 6.67243 246.672C9.54408 243.801 13.4389 242.188 17.5 242.188C21.5611 242.188 25.4559 243.801 28.3276 246.672C31.1992 249.544 32.8125 253.439 32.8125 257.5C32.8125 261.561 31.1992 265.456 28.3276 268.328C25.4559 271.199 21.5611 272.812 17.5 272.812ZM17.5 275C22.1413 275 26.5925 273.156 29.8744 269.874C33.1563 266.592 35 262.141 35 257.5C35 252.859 33.1563 248.408 29.8744 245.126C26.5925 241.844 22.1413 240 17.5 240C12.8587 240 8.40752 241.844 5.12563 245.126C1.84374 248.408 0 252.859 0 257.5C0 262.141 1.84374 266.592 5.12563 269.874C8.40752 273.156 12.8587 275 17.5 275Z" fill="#FF5D24"/>
<path d="M23.997 250.872C23.9814 250.887 23.9668 250.903 23.9533 250.92L16.3561 260.6L11.7776 256.019C11.4666 255.729 11.0553 255.571 10.6302 255.579C10.2052 255.586 9.79967 255.759 9.49908 256.059C9.19849 256.36 9.02631 256.765 9.01881 257.19C9.01131 257.615 9.16908 258.027 9.45888 258.338L15.247 264.128C15.4029 264.284 15.5886 264.406 15.793 264.489C15.9973 264.571 16.2162 264.611 16.4364 264.607C16.6567 264.603 16.8739 264.555 17.0751 264.465C17.2763 264.375 17.4573 264.246 17.6073 264.084L26.3398 253.169C26.6372 252.857 26.7997 252.44 26.7924 252.009C26.785 251.578 26.6084 251.167 26.3006 250.866C25.9928 250.564 25.5785 250.395 25.1475 250.396C24.7164 250.398 24.3031 250.568 23.997 250.872Z" fill="#FF5D24"/>
</g>
<defs>
<clipPath id="clip0_152_196">
<rect width="35" height="35" fill="white"/>
</clipPath>
<clipPath id="clip1_152_196">
<rect width="35" height="35" fill="white" transform="translate(0 60)"/>
</clipPath>
<clipPath id="clip2_152_196">
<rect width="35" height="35" fill="white" transform="translate(0 120)"/>
</clipPath>
<clipPath id="clip3_152_196">
<rect width="35" height="35" fill="white" transform="translate(0 180)"/>
</clipPath>
<clipPath id="clip4_152_196">
<rect width="35" height="35" fill="white" transform="translate(0 240)"/>
</clipPath>
</defs>
</svg>
