<svg width="40" height="40" viewBox="0 0 40 40" fill="none" xmlns="http://www.w3.org/2000/svg">
<path d="M29.4329 11.1671L28.9444 12.6757C28.8266 13.0396 28.7831 13.4236 28.8164 13.8047C28.8498 14.1858 28.9594 14.5563 29.1387 14.8942L29.7158 15.9842C29.9344 16.3965 30.0487 16.8561 30.0487 17.3228V18.9414C30.0487 19.2842 30.4815 19.4299 30.6901 19.1585L31.6929 17.8414C32.0593 17.3603 32.2636 16.7754 32.2765 16.1709C32.2893 15.5663 32.11 14.9733 31.7644 14.4771L30.7858 13.0714C30.5898 12.7898 30.446 12.4753 30.3615 12.1428L30.1187 11.1899C30.0315 10.8428 29.5444 10.8271 29.4329 11.1671ZM30.0001 20.3571C30.0001 20.2624 30.0377 20.1715 30.1047 20.1045C30.1717 20.0376 30.2625 19.9999 30.3572 19.9999H31.0715C31.1662 19.9999 31.2571 20.0376 31.3241 20.1045C31.391 20.1715 31.4287 20.2624 31.4287 20.3571V23.9285C31.4287 24.0232 31.391 24.1141 31.3241 24.1811C31.2571 24.248 31.1662 24.2857 31.0715 24.2857H30.3572C30.2625 24.2857 30.1717 24.248 30.1047 24.1811C30.0377 24.1141 30.0001 24.0232 30.0001 23.9285V20.3571Z" fill="#FF5D24"/>
<path d="M40 20C40 31.0457 31.0457 40 20 40C8.95429 40 0 31.0457 0 20C0 8.95429 8.95429 0 20 0C31.0457 0 40 8.95429 40 20ZM32.5243 29.4929C34.599 26.7635 35.7197 23.4283 35.7143 20C35.7143 11.3214 28.6786 4.28571 20 4.28571C16.4329 4.28571 13.1429 5.47429 10.5071 7.47571L23.0286 20H28.2129C28.3076 20 28.3984 20.0376 28.4654 20.1046C28.5324 20.1716 28.57 20.2624 28.57 20.3571V23.9286C28.57 24.0233 28.5324 24.1141 28.4654 24.1811C28.3984 24.2481 28.3076 24.2857 28.2129 24.2857H27.3143L32.5229 29.4929H32.5243ZM29.4929 32.5243L21.2571 24.2857H8.57143C8.19255 24.2857 7.82919 24.1352 7.56128 23.8673C7.29337 23.5994 7.14286 23.236 7.14286 22.8571V21.4286C7.14286 21.0497 7.29337 20.6863 7.56128 20.4184C7.82919 20.1505 8.19255 20 8.57143 20H16.97L7.47571 10.5071C5.40105 13.2365 4.28028 16.5717 4.28571 20C4.28571 28.6786 11.3214 35.7143 20 35.7143C23.5671 35.7143 26.8571 34.5257 29.4929 32.5243Z" fill="#FF5D24"/>
</svg>
