<svg width="50" height="64" viewBox="0 0 50 64" fill="none" xmlns="http://www.w3.org/2000/svg">
<path d="M46.2251 0C47.096 0.000114889 47.9366 0.319864 48.5874 0.898599C49.2382 1.47733 49.654 2.2748 49.7559 3.13975L49.7808 3.55577V60.4482C49.7798 61.3544 49.4328 62.2261 48.8106 62.8852C48.1885 63.5442 47.3382 63.9408 46.4334 63.9939C45.5287 64.047 44.6378 63.7526 43.9428 63.1709C43.2479 62.5892 42.8012 61.7641 42.6942 60.8642L42.6693 60.4482V42.6693H39.1135C38.2426 42.6692 37.402 42.3494 36.7511 41.7707C36.1003 41.192 35.6845 40.3945 35.5826 39.5295L35.5577 39.1135V17.7789C35.5577 9.92061 40.8914 0 46.2251 0ZM24.8904 0C25.7613 0.000114889 26.6019 0.319864 27.2528 0.898599C27.9036 1.47733 28.3194 2.2748 28.4213 3.13975L28.4462 3.55577V21.3346C28.4458 24.4882 27.3979 27.5522 25.4671 30.0455C23.5362 32.5388 20.8319 34.3201 17.7789 35.1097V60.4482C17.7779 61.3544 17.4308 62.2261 16.8087 62.8852C16.1865 63.5442 15.3362 63.9408 14.4315 63.9939C13.5267 64.047 12.6359 63.7526 11.9409 63.1709C11.2459 62.5892 10.7993 61.7641 10.6922 60.8642L10.6673 60.4482V35.1097C7.73542 34.3518 5.12176 32.6783 3.20647 30.3326C1.29118 27.9869 0.174127 25.0914 0.0177793 22.0671L0 21.3346V3.55577C0.00100524 2.64948 0.348035 1.77777 0.970186 1.11876C1.59234 0.459746 2.44265 0.0631683 3.34739 0.0100553C4.25212 -0.0430577 5.143 0.251303 5.83798 0.832993C6.53297 1.41468 6.97961 2.2398 7.08666 3.13975L7.11155 3.55577V21.3346C7.11158 22.5829 7.44019 23.8093 8.06436 24.8903C8.68853 25.9714 9.58625 26.8691 10.6673 27.4932V3.55577C10.6683 2.64948 11.0154 1.77777 11.6375 1.11876C12.2597 0.459746 13.11 0.0631683 14.0147 0.0100553C14.9194 -0.0430577 15.8103 0.251303 16.5053 0.832993C17.2003 1.41468 17.6469 2.2398 17.754 3.13975L17.7789 3.55577L17.7824 27.4932C18.7747 26.9197 19.6137 26.1148 20.2278 25.1471C20.842 24.1794 21.2132 23.0776 21.3098 21.9356L21.3346 21.3346V3.55577C21.3346 2.61272 21.7093 1.7083 22.3761 1.04146C23.0429 0.374625 23.9474 0 24.8904 0Z" fill="#FF6828"/>
</svg>
