<svg width="34" height="30" viewBox="0 0 34 30" fill="none" xmlns="http://www.w3.org/2000/svg">
<path d="M30 0H3.33333C1.495 0 0 1.495 0 3.33333V26.6667C0 28.505 1.495 30 3.33333 30H30C31.8383 30 33.3333 28.505 33.3333 26.6667V3.33333C33.3333 1.495 31.8383 0 30 0ZM30.0017 10C30 10 30 10 30.0017 10H29.2267L24.7817 3.33333H30L30.0017 10ZM22.5 20L13.3333 25V15L22.5 20ZM20.8933 10L16.4483 3.33333H20.775L25.22 10H20.8933ZM16.8867 10H12.56L8.115 3.33333H12.4417L16.8867 10ZM3.33333 3.33333H4.10833L8.55333 10H3.33333V3.33333Z" fill="#FF5D24"/>
</svg>
