<svg width="60" height="60" viewBox="0 0 60 60" fill="none" xmlns="http://www.w3.org/2000/svg">
<path d="M54.5137 25.1037H52.5V25H30V35H44.1287C42.0675 40.8212 36.5287 45 30 45C21.7162 45 15 38.2837 15 30C15 21.7162 21.7162 15 30 15C33.8237 15 37.3025 16.4425 39.9512 18.7987L47.0225 11.7275C42.5575 7.56625 36.585 5 30 5C16.1937 5 5 16.1937 5 30C5 43.8062 16.1937 55 30 55C43.8062 55 55 43.8062 55 30C55 28.3237 54.8275 26.6875 54.5137 25.1037Z" fill="#FFC107"/>
<path d="M7.88281 18.3638L16.0966 24.3875C18.3191 18.885 23.7016 15 30.0003 15C33.8241 15 37.3028 16.4425 39.9516 18.7987L47.0228 11.7275C42.5578 7.56625 36.5853 5 30.0003 5C20.3978 5 12.0703 10.4212 7.88281 18.3638Z" fill="#FF3D00"/>
<path d="M30.0004 55C36.4579 55 42.3254 52.5287 46.7616 48.51L39.0241 41.9625C36.4298 43.9355 33.2597 45.0026 30.0004 45C23.4979 45 17.9766 40.8538 15.8966 35.0675L7.74414 41.3488C11.8816 49.445 20.2841 55 30.0004 55Z" fill="#4CAF50"/>
<path d="M54.5137 25.1038H52.5V25H30V35H44.1288C43.1428 37.7705 41.3667 40.1915 39.02 41.9637L39.0237 41.9613L46.7612 48.5087C46.2137 49.0062 55 42.5 55 30C55 28.3238 54.8275 26.6875 54.5137 25.1038Z" fill="#1976D2"/>
</svg>
