<svg width="34" height="40" viewBox="0 0 34 40" fill="none" xmlns="http://www.w3.org/2000/svg">
<path d="M7.49998 0C3.35749 0 0 3.91749 0 8.74997C0 12.8875 2.46249 16.3549 5.76998 17.2649L4.52749 37.5049C4.5043 37.826 4.54798 38.1485 4.65579 38.4519C4.7636 38.7552 4.93318 39.033 5.1538 39.2674C5.37443 39.5019 5.64132 39.6881 5.93758 39.8142C6.23384 39.9402 6.55303 40.0035 6.87498 39.9999H8.12498C9.49997 39.9999 10.555 38.8774 10.4725 37.5049L9.22997 17.2649C12.5375 16.3525 15 12.8875 15 8.74997C15 3.91749 11.6425 0 7.49998 0ZM32.7074 0L30.6249 12.5H29.0624L28.0199 0H26.9774L25.9349 12.5H24.3724L22.2899 0H21.2474V16.25C21.2474 16.5815 21.3791 16.8994 21.6136 17.1338C21.848 17.3683 22.1659 17.4999 22.4974 17.4999H25.7524L24.5249 37.5049C24.5017 37.826 24.5454 38.1485 24.6532 38.4519C24.761 38.7552 24.9306 39.033 25.1512 39.2674C25.3719 39.5019 25.6388 39.6881 25.935 39.8142C26.2313 39.9402 26.5505 40.0035 26.8724 39.9999H28.1224C29.4974 39.9999 30.5524 38.8774 30.4699 37.5049L29.2424 17.4999H32.4974C32.8289 17.4999 33.1469 17.3683 33.3813 17.1338C33.6157 16.8994 33.7474 16.5815 33.7474 16.25V0H32.7049H32.7074Z" fill="#FF6828"/>
</svg>
