<svg width="30" height="30" viewBox="0 0 30 30" fill="none" xmlns="http://www.w3.org/2000/svg">
<path d="M29.4489 23.4999L22.6033 17.2758C22.2798 16.9817 21.8545 16.8248 21.4175 16.8384C20.9804 16.8519 20.5657 17.0347 20.2609 17.3482L16.231 21.4926C15.261 21.3073 13.3109 20.6994 11.3036 18.6971C9.29625 16.6881 8.68832 14.7329 8.50813 13.7697L12.6491 9.73815C12.963 9.43356 13.1461 9.01877 13.1597 8.58158C13.1732 8.14438 13.016 7.71908 12.7215 7.39568L6.49909 0.551839C6.20446 0.227424 5.79497 0.030643 5.35759 0.00328685C4.92021 -0.0240693 4.48939 0.120155 4.15663 0.40533L0.502312 3.53928C0.211164 3.83149 0.0373877 4.22039 0.013947 4.63221C-0.0113133 5.05321 -0.492942 15.026 7.24006 22.7623C13.9862 29.5068 22.4366 30.0002 24.7639 30.0002C25.1041 30.0002 25.3129 29.9901 25.3685 29.9868C25.7803 29.9637 26.169 29.7892 26.4597 29.4967L29.592 25.8407C29.8783 25.509 30.0236 25.0785 29.9969 24.6412C29.9701 24.2038 29.7735 23.7943 29.4489 23.4999Z" fill="#FF5D24"/>
</svg>
