<svg width="75" height="75" viewBox="0 0 75 75" fill="none" xmlns="http://www.w3.org/2000/svg">
<path d="M66.5071 29.2553C69.1909 30.8008 71.367 33.0938 72.7701 35.8547C74.1731 38.6156 74.7424 41.7251 74.4086 44.804C74.0747 47.8829 72.8522 50.7982 70.89 53.1942C68.9279 55.5903 66.3109 57.3636 63.3582 58.2979C62.3146 63.0336 59.685 67.2709 55.9048 70.3083C52.1245 73.3456 47.4203 75.0009 42.571 75H34.5922C33.8869 75 33.2104 74.7198 32.7116 74.221C32.2129 73.7223 31.9327 73.0458 31.9327 72.3404C31.9327 71.6351 32.2129 70.9586 32.7116 70.4598C33.2104 69.9611 33.8869 69.6809 34.5922 69.6809H42.571C45.8721 69.6818 49.0924 68.6593 51.7883 66.754C54.4841 64.8488 56.523 62.1547 57.6242 59.0426H55.8688C55.1635 59.0426 54.487 58.7624 53.9882 58.2636C53.4895 57.7648 53.2093 57.0883 53.2093 56.383V29.7872C53.2093 29.0819 53.4895 28.4054 53.9882 27.9066C54.487 27.4079 55.1635 27.1277 55.8688 27.1277H58.5284C59.3901 27.1277 60.2359 27.1968 61.0656 27.3298C60.4669 21.4303 57.6996 15.963 53.3 11.9873C48.9004 8.01166 43.1816 5.81059 37.2518 5.81059C31.322 5.81059 25.6033 8.01166 21.2037 11.9873C16.804 15.963 14.0368 21.4303 13.438 27.3298C14.2771 27.1954 15.1255 27.1278 15.9752 27.1277H18.6348C19.3402 27.1277 20.0166 27.4079 20.5154 27.9066C21.0142 28.4054 21.2944 29.0819 21.2944 29.7872V56.383C21.2944 57.0883 21.0142 57.7648 20.5154 58.2636C20.0166 58.7624 19.3402 59.0426 18.6348 59.0426H15.9752C12.4592 59.0465 9.04025 57.889 6.24968 55.75C3.4591 53.611 1.45312 50.6102 0.543388 47.2139C-0.366343 43.8176 -0.128879 40.2159 1.21888 36.9684C2.56665 33.7209 4.94925 31.0094 7.9965 29.2553C7.9965 21.4963 11.0787 14.0551 16.5652 8.56868C22.0516 3.08225 29.4928 0 37.2518 0C45.0108 0 52.452 3.08225 57.9385 8.56868C63.4249 14.0551 66.5071 21.4963 66.5071 29.2553ZM15.9752 32.4468C13.1538 32.4468 10.4479 33.5676 8.45281 35.5627C6.45774 37.5578 5.33692 40.2637 5.33692 43.0851C5.33692 45.9066 6.45774 48.6125 8.45281 50.6075C10.4479 52.6026 13.1538 53.7234 15.9752 53.7234V32.4468ZM69.1667 43.0851C69.1667 40.2637 68.0459 37.5578 66.0508 35.5627C64.0558 33.5676 61.3499 32.4468 58.5284 32.4468V53.7234C61.3499 53.7234 64.0558 52.6026 66.0508 50.6075C68.0459 48.6125 69.1667 45.9066 69.1667 43.0851Z" fill="#FF6828"/>
</svg>
