<svg width="31" height="31" viewBox="0 0 31 31" fill="none" xmlns="http://www.w3.org/2000/svg">
<path d="M22.475 15.5C24.614 15.5 26.3345 13.02 26.3345 9.96429C26.3345 6.90857 24.614 4.42857 22.475 4.42857C21.4473 4.42857 20.4617 5.0118 19.735 6.04994C19.0083 7.08809 18.6 8.49612 18.6 9.96429C18.6 11.4324 19.0083 12.8405 19.735 13.8786C20.4617 14.9168 21.4473 15.5 22.475 15.5ZM10.85 13.2857C13.423 13.2857 15.4845 10.3186 15.4845 6.64286C15.4845 2.96714 13.423 0 10.85 0C8.277 0 6.2 2.96714 6.2 6.64286C6.2 10.3186 8.277 13.2857 10.85 13.2857ZM22.475 19.9286C19.6385 19.9286 13.95 21.9657 13.95 26.0179V28.7857C13.95 30.0036 14.6475 31 15.5 31H29.45C30.3025 31 31 30.0036 31 28.7857V26.0179C31 21.9657 25.3115 19.9286 22.475 19.9286ZM10.85 17.7143C7.2385 17.7143 0 20.305 0 25.4643V28.7857C0 30.0036 0.6975 31 1.55 31H10.85V26.0179C10.85 24.1357 11.3615 20.8364 14.5235 18.3343C13.175 17.9357 11.873 17.7143 10.85 17.7143Z" fill="#FF5D24"/>
</svg>
