<svg width="37" height="37" viewBox="0 0 37 37" fill="none" xmlns="http://www.w3.org/2000/svg">
<path d="M35.3182 28.5907H8.40934C7.51726 28.5907 6.66171 28.2364 6.03092 27.6056C5.40012 26.9748 5.04574 26.1192 5.04574 25.2271V10.0909C5.04574 9.19882 4.69136 8.34327 4.06056 7.71247C3.42976 7.08167 2.57422 6.7273 1.68213 6.7273" stroke="#FF5D24" stroke-width="3.33333" stroke-linecap="round" stroke-linejoin="round"/>
<path d="M26.9095 21.8635V5.04549C26.9095 4.15341 26.5551 3.29786 25.9243 2.66706C25.2935 2.03626 24.438 1.68189 23.5459 1.68189H21.8641C20.972 1.68189 20.1165 2.03626 19.4857 2.66706C18.8549 3.29786 18.5005 4.15341 18.5005 5.04549V21.8635" stroke="#FF5D24" stroke-width="3.33333" stroke-linecap="round" stroke-linejoin="round"/>
<path d="M31.9546 8.40918H13.4548C12.5259 8.40918 11.773 9.16215 11.773 10.091V20.1818C11.773 21.1106 12.5259 21.8636 13.4548 21.8636H31.9546C32.8834 21.8636 33.6364 21.1106 33.6364 20.1818V10.091C33.6364 9.16215 32.8834 8.40918 31.9546 8.40918Z" stroke="#FF5D24" stroke-width="3.33333" stroke-linecap="round" stroke-linejoin="round"/>
<path d="M28.5907 35.318C30.4483 35.318 31.9543 33.8121 31.9543 31.9544C31.9543 30.0968 30.4483 28.5908 28.5907 28.5908C26.733 28.5908 25.227 30.0968 25.227 31.9544C25.227 33.8121 26.733 35.318 28.5907 35.318Z" stroke="#FF5D24" stroke-width="3.33333" stroke-linecap="round" stroke-linejoin="round"/>
<path d="M13.4544 35.318C15.3121 35.318 16.818 33.8121 16.818 31.9544C16.818 30.0968 15.3121 28.5908 13.4544 28.5908C11.5968 28.5908 10.0908 30.0968 10.0908 31.9544C10.0908 33.8121 11.5968 35.318 13.4544 35.318Z" stroke="#FF5D24" stroke-width="3.33333" stroke-linecap="round" stroke-linejoin="round"/>
</svg>
