<svg width="34" height="24" viewBox="0 0 34 24" fill="none" xmlns="http://www.w3.org/2000/svg">
<path d="M11.9 11.9C15.181 11.9 17.85 9.23102 17.85 5.95001C17.85 2.66901 15.181 0 11.9 0C8.61902 0 5.95001 2.66901 5.95001 5.95001C5.95001 9.23102 8.61902 11.9 11.9 11.9ZM11.9 3.40001C13.311 3.40001 14.45 4.53901 14.45 5.95001C14.45 7.36102 13.311 8.50002 11.9 8.50002C10.489 8.50002 9.35002 7.36102 9.35002 5.95001C9.35002 4.53901 10.489 3.40001 11.9 3.40001ZM11.985 20.4H4.70901C6.39202 19.55 9.29902 18.7 11.9 18.7C12.087 18.7 12.291 18.717 12.478 18.717C13.056 17.476 14.059 16.456 15.266 15.64C14.025 15.419 12.852 15.3 11.9 15.3C7.92202 15.3 0 17.289 0 21.2501V23.8001H11.9V21.2501C11.9 20.9611 11.934 20.6721 11.985 20.4ZM24.6501 16.15C21.5221 16.15 15.3 17.867 15.3 21.2501V23.8001H34.0001V21.2501C34.0001 17.867 27.7781 16.15 24.6501 16.15ZM26.7071 13.056C27.9991 12.325 28.9001 10.948 28.9001 9.35002C28.9001 8.22285 28.4523 7.14184 27.6553 6.34481C26.8582 5.54778 25.7772 5.10001 24.6501 5.10001C23.5229 5.10001 22.4419 5.54778 21.6449 6.34481C20.8478 7.14184 20.4 8.22285 20.4 9.35002C20.4 10.948 21.3011 12.325 22.5931 13.056C23.2051 13.396 23.9021 13.6 24.6501 13.6C25.3981 13.6 26.0951 13.396 26.7071 13.056Z" fill="#FF6828"/>
</svg>
