<svg width="39" height="39" viewBox="0 0 39 39" fill="none" xmlns="http://www.w3.org/2000/svg">
<path d="M27.4499 5.40714L22.1556 10.7033L14.8378 9.06318C15.5282 8.09815 16.5847 5.85151 15.7227 4.98947C14.7367 4.00537 11.9503 5.52347 11.3286 6.1433L9.58734 7.88455L4.45705 6.73262L0.604572 10.5851L4.86137 12.6105L4.70498 12.7669L7.94717 16.0091L9.26312 14.7008L15.2955 17.5691L8.18747 24.6695H2.16845L0 26.8399L6.86581 28.6479L10.3559 32.138L12.162 39L14.3305 36.8315V30.8106L21.4347 23.7064L24.303 29.7407L22.9909 31.049L26.2369 34.2912L26.3895 34.1386L28.4168 38.3916L32.2693 34.5391L31.1174 29.4127L32.8567 27.6733C33.4784 27.0516 34.9927 24.2595 34.0086 23.2754C33.1447 22.4134 30.8999 23.4661 29.9349 24.1603L28.2948 16.8406L33.5891 11.5444C35.3951 9.73641 40.4549 2.26984 38.5858 0.40654C36.7225 -1.45867 29.256 3.59723 27.448 5.40332L27.4499 5.40714Z" fill="white"/>
</svg>
