<svg width="30" height="30" viewBox="0 0 30 30" fill="none" xmlns="http://www.w3.org/2000/svg">
<path d="M15 0C12.0333 0 9.13317 0.879732 6.66643 2.52795C4.1997 4.17617 2.27712 6.51884 1.14181 9.25972C0.00649924 12.0006 -0.29055 15.0166 0.288227 17.9263C0.867003 20.836 2.29561 23.5088 4.39339 25.6065C6.49117 27.7043 9.16391 29.1329 12.0736 29.7117C14.9833 30.2905 17.9993 29.9934 20.7402 28.8581C23.4811 27.7228 25.8238 25.8002 27.472 23.3335C29.1202 20.8668 29.9999 17.9667 29.9999 15C29.9999 13.0301 29.6119 11.0796 28.8581 9.25972C28.1043 7.43984 26.9994 5.78626 25.6065 4.39339C24.2137 3.00051 22.5601 1.89562 20.7402 1.1418C18.9203 0.387986 16.9698 0 15 0ZM20.9999 16.5H15C14.6021 16.5 14.2206 16.3419 13.9393 16.0606C13.658 15.7793 13.5 15.3978 13.5 15V8.99998C13.5 8.60215 13.658 8.22062 13.9393 7.93932C14.2206 7.65801 14.6021 7.49998 15 7.49998C15.3978 7.49998 15.7793 7.65801 16.0606 7.93932C16.3419 8.22062 16.5 8.60215 16.5 8.99998V13.5H20.9999C21.3978 13.5 21.7793 13.658 22.0606 13.9393C22.3419 14.2206 22.4999 14.6021 22.4999 15C22.4999 15.3978 22.3419 15.7793 22.0606 16.0606C21.7793 16.3419 21.3978 16.5 20.9999 16.5Z" fill="#FF6828"/>
</svg>
