<svg width="25" height="34" viewBox="0 0 25 34" fill="none" xmlns="http://www.w3.org/2000/svg">
<path d="M5 26.6667C5 26.6667 0 13.3333 0 6.66667C0 0 3.33333 0 3.33333 0H5C5 0 6.66667 0 6.66667 1.66667C6.66667 3.33333 5 3.33333 5 6.66667C5 10 10 13.3333 10 18.3333C10 23.3333 5 26.6667 5 26.6667ZM13.3333 25C11.6667 25 6.66667 29.1667 6.66667 29.1667C6.16667 29.5 6.33333 30 6.66667 30.5C6.66667 30.5 8.33333 33.5 11.6667 33.5H21.6667C23.5 33.5 25 32 25 30.1667V28.5C25 26.6667 23.5 25.1667 21.6667 25.1667H13.3333V25Z" fill="#FF6828"/>
</svg>
