<svg width="195" height="35" viewBox="0 0 195 35" fill="none" xmlns="http://www.w3.org/2000/svg">
<path d="M31.0388 12.0689L22.3606 10.8076L18.4812 2.94288C18.3752 2.72755 18.2009 2.55324 17.9856 2.44728C17.4456 2.18068 16.7893 2.40284 16.5193 2.94288L12.6399 10.8076L3.96167 12.0689C3.72241 12.103 3.50366 12.2158 3.33618 12.3867C3.1337 12.5948 3.02213 12.8748 3.02598 13.1651C3.02982 13.4555 3.14877 13.7324 3.35668 13.9351L9.63549 20.0567L8.1521 28.7007C8.11731 28.9018 8.13956 29.1086 8.21633 29.2977C8.29309 29.4867 8.4213 29.6505 8.58641 29.7704C8.75152 29.8904 8.94693 29.9616 9.15048 29.9761C9.35403 29.9906 9.55758 29.9478 9.73803 29.8526L17.5002 25.7715L25.2624 29.8526C25.4744 29.9653 25.7205 30.0029 25.9563 29.9619C26.551 29.8594 26.9509 29.2954 26.8484 28.7007L25.365 20.0567L31.6438 13.9351C31.8147 13.7676 31.9275 13.5488 31.9617 13.3096C32.054 12.7114 31.637 12.1577 31.0388 12.0689Z" fill="#FFDC00"/>
<path d="M71.0388 12.0689L62.3606 10.8076L58.4812 2.94288C58.3752 2.72755 58.2009 2.55324 57.9856 2.44728C57.4456 2.18068 56.7893 2.40284 56.5193 2.94288L52.6399 10.8076L43.9617 12.0689C43.7224 12.103 43.5037 12.2158 43.3362 12.3867C43.1337 12.5948 43.0221 12.8748 43.026 13.1651C43.0298 13.4555 43.1488 13.7324 43.3567 13.9351L49.6355 20.0567L48.1521 28.7007C48.1173 28.9018 48.1396 29.1086 48.2163 29.2977C48.2931 29.4867 48.4213 29.6505 48.5864 29.7704C48.7515 29.8904 48.9469 29.9616 49.1505 29.9761C49.354 29.9906 49.5576 29.9478 49.738 29.8526L57.5002 25.7715L65.2624 29.8526C65.4744 29.9653 65.7205 30.0029 65.9563 29.9619C66.551 29.8594 66.9509 29.2954 66.8484 28.7007L65.365 20.0567L71.6438 13.9351C71.8147 13.7676 71.9275 13.5488 71.9617 13.3096C72.054 12.7114 71.637 12.1577 71.0388 12.0689Z" fill="#FFDC00"/>
<path d="M111.039 12.0689L102.361 10.8076L98.4812 2.94288C98.3752 2.72755 98.2009 2.55324 97.9856 2.44728C97.4456 2.18068 96.7893 2.40284 96.5193 2.94288L92.6399 10.8076L83.9617 12.0689C83.7224 12.103 83.5037 12.2158 83.3362 12.3867C83.1337 12.5948 83.0221 12.8748 83.026 13.1651C83.0298 13.4555 83.1488 13.7324 83.3567 13.9351L89.6355 20.0567L88.1521 28.7007C88.1173 28.9018 88.1396 29.1086 88.2163 29.2977C88.2931 29.4867 88.4213 29.6505 88.5864 29.7704C88.7515 29.8904 88.9469 29.9616 89.1505 29.9761C89.354 29.9906 89.5576 29.9478 89.738 29.8526L97.5002 25.7715L105.262 29.8526C105.474 29.9653 105.72 30.0029 105.956 29.9619C106.551 29.8594 106.951 29.2954 106.848 28.7007L105.365 20.0567L111.644 13.9351C111.815 13.7676 111.927 13.5488 111.962 13.3096C112.054 12.7114 111.637 12.1577 111.039 12.0689Z" fill="#FFDC00"/>
<path d="M151.039 12.0689L142.361 10.8076L138.481 2.94288C138.375 2.72755 138.201 2.55324 137.986 2.44728C137.446 2.18068 136.789 2.40284 136.519 2.94288L132.64 10.8076L123.962 12.0689C123.722 12.103 123.504 12.2158 123.336 12.3867C123.134 12.5948 123.022 12.8748 123.026 13.1651C123.03 13.4555 123.149 13.7324 123.357 13.9351L129.635 20.0567L128.152 28.7007C128.117 28.9018 128.14 29.1086 128.216 29.2977C128.293 29.4867 128.421 29.6505 128.586 29.7704C128.752 29.8904 128.947 29.9616 129.15 29.9761C129.354 29.9906 129.558 29.9478 129.738 29.8526L137.5 25.7715L145.262 29.8526C145.474 29.9653 145.72 30.0029 145.956 29.9619C146.551 29.8594 146.951 29.2954 146.848 28.7007L145.365 20.0567L151.644 13.9351C151.815 13.7676 151.927 13.5488 151.962 13.3096C152.054 12.7114 151.637 12.1577 151.039 12.0689Z" fill="#FFDC00"/>
<path d="M176.15 3.83978C176.616 2.60895 178.382 2.60895 178.851 3.83978L181.869 12.2019C181.975 12.4743 182.16 12.7083 182.401 12.8731C182.642 13.0379 182.928 13.1258 183.22 13.125H190.638C192.009 13.125 192.607 14.8312 191.529 15.6669L186.25 20.4167C186.014 20.5984 185.841 20.8505 185.757 21.1366C185.672 21.4227 185.681 21.7281 185.781 22.0092L187.709 30.1802C188.178 31.4927 186.659 32.62 185.509 31.8121L178.339 27.2621C178.093 27.0895 177.8 26.9969 177.5 26.9969C177.2 26.9969 176.907 27.0895 176.662 27.2621L169.491 31.8121C168.343 32.62 166.822 31.4912 167.292 30.1802L169.22 22.0092C169.32 21.7281 169.328 21.4227 169.244 21.1366C169.159 20.8505 168.987 20.5984 168.75 20.4167L163.471 15.6669C162.392 14.8312 162.993 13.125 164.361 13.125H171.779C172.071 13.126 172.357 13.0382 172.598 12.8734C172.839 12.7085 173.024 12.4744 173.13 12.2019L176.148 3.83978H176.15Z" stroke="#FFDC00" stroke-width="2" stroke-linecap="round" stroke-linejoin="round"/>
</svg>
