<svg width="50" height="50" viewBox="0 0 50 50" fill="none" xmlns="http://www.w3.org/2000/svg">
<path d="M9.375 22.9166C11.1009 22.9166 12.5 21.5175 12.5 19.7916C12.5 18.0657 11.1009 16.6666 9.375 16.6666C7.64911 16.6666 6.25 18.0657 6.25 19.7916C6.25 21.5175 7.64911 22.9166 9.375 22.9166Z" fill="#FF5D24"/>
<path d="M46.1878 19.1042C46.1878 11.0417 39.667 4.52087 31.6045 4.52087C23.542 4.52087 17.0212 11.0417 17.0212 19.1042C17.0185 22.5475 18.2378 25.88 20.4619 28.5085C22.6861 31.137 25.7708 32.8911 29.167 33.4584V41.6667H12.5003V35.4167H14.5837V27.0834C14.5837 25.9375 13.6462 25 12.5003 25H6.25033C5.10449 25 4.16699 25.9375 4.16699 27.0834V35.4167H6.25033V45.8334H39.5837V41.6667H33.3337V33.5834C36.8766 33.1603 40.1414 31.453 42.5103 28.7847C44.8791 26.1164 46.1875 22.6723 46.1878 19.1042ZM31.6045 29.5209C25.8545 29.5209 21.1878 24.8542 21.1878 19.1042C21.1878 13.3542 25.8545 8.68754 31.6045 8.68754C37.3545 8.68754 42.0212 13.3542 42.0212 19.1042C42.0212 24.8542 37.3545 29.5209 31.6045 29.5209Z" fill="#FF5D24"/>
</svg>
