<svg width="34" height="34" viewBox="0 0 34 34" fill="none" xmlns="http://www.w3.org/2000/svg">
<path d="M31.8748 14.8749H19.1249V2.12499C19.1249 1.56141 18.901 1.02091 18.5025 0.622395C18.104 0.223883 17.5635 0 16.9999 0C16.4363 0 15.8958 0.223883 15.4973 0.622395C15.0988 1.02091 14.8749 1.56141 14.8749 2.12499V14.8749H2.12499C1.56141 14.8749 1.02091 15.0988 0.622395 15.4973C0.223883 15.8958 0 16.4363 0 16.9999C0 17.5635 0.223883 18.104 0.622395 18.5025C1.02091 18.901 1.56141 19.1249 2.12499 19.1249H14.8749V31.8748C14.8749 32.4384 15.0988 32.9789 15.4973 33.3774C15.8958 33.776 16.4363 33.9998 16.9999 33.9998C17.5635 33.9998 18.104 33.776 18.5025 33.3774C18.901 32.9789 19.1249 32.4384 19.1249 31.8748V19.1249H31.8748C32.4384 19.1249 32.9789 18.901 33.3774 18.5025C33.776 18.104 33.9998 17.5635 33.9998 16.9999C33.9998 16.4363 33.776 15.8958 33.3774 15.4973C32.9789 15.0988 32.4384 14.8749 31.8748 14.8749Z" fill="#FF5D24"/>
</svg>
