<svg width="740" height="50" viewBox="0 0 740 50" fill="none" xmlns="http://www.w3.org/2000/svg">
<g clip-path="url(#clip0_166_524)">
<path d="M26.6094 3.18438C26.0738 3.14484 25.537 3.12503 25 3.125V0C25.6142 0.000299461 26.2281 0.0232317 26.8406 0.06875L26.6094 3.18438ZM32.8719 4.59062C31.8701 4.20408 30.8413 3.89177 29.7938 3.65625L30.4781 0.60625C31.675 0.875 32.8531 1.23125 33.9969 1.675L32.8719 4.59062ZM37.1531 6.80937C36.7063 6.5114 36.2487 6.22996 35.7812 5.96563L37.3219 3.24688C38.3903 3.8523 39.4129 4.53539 40.3813 5.29063L38.4594 7.75625C38.0357 7.42572 37.6 7.11092 37.1531 6.8125V6.80937ZM42.8844 12.4031C42.2662 11.5249 41.5842 10.6935 40.8438 9.91563L43.1063 7.75938C43.95 8.65 44.7313 9.60312 45.4406 10.6031L42.8844 12.4031ZM45.2094 16.6281C45.0043 16.1327 44.7812 15.6449 44.5406 15.1656L47.3313 13.7594C47.8831 14.8565 48.3532 15.9929 48.7375 17.1594L45.7688 18.1375C45.6008 17.6277 45.4142 17.1242 45.2094 16.6281ZM46.8656 24.4625C46.8404 23.3886 46.7359 22.3179 46.5531 21.2594L49.6313 20.7281C49.8406 21.9344 49.9625 23.1594 49.9938 24.3844L46.8688 24.4625H46.8656ZM46.4563 29.2688C46.5594 28.7375 46.6438 28.2094 46.7094 27.675L49.8125 28.0594C49.6624 29.2786 49.4222 30.485 49.0938 31.6687L46.0813 30.8344C46.225 30.3187 46.35 29.7969 46.4563 29.2688ZM43.4813 36.7031C44.0562 35.7969 44.5625 34.8469 45 33.8656L47.8563 35.1312C47.3563 36.2562 46.7781 37.3375 46.1219 38.375L43.4813 36.7031ZM40.4688 40.4688C40.85 40.0875 41.2156 39.6937 41.5625 39.2875L43.9312 41.3281C43.5301 41.7932 43.1121 42.2435 42.6781 42.6781L40.4688 40.4688Z" fill="#FF5D24"/>
<path d="M25 3.125C21.4027 3.12526 17.8611 4.01265 14.6887 5.70856C11.5163 7.40447 8.81108 9.85657 6.81268 12.8477C4.81427 15.8387 3.58435 19.2765 3.23185 22.8564C2.87935 26.4364 3.41516 30.048 4.7918 33.3714C6.16844 36.6948 8.34344 39.6275 11.1241 41.9095C13.9048 44.1916 17.2054 45.7527 20.7335 46.4546C24.2617 47.1565 27.9084 46.9774 31.3508 45.9333C34.7932 44.8892 37.925 43.0123 40.4688 40.4688L42.6781 42.6781C39.771 45.5868 36.1914 47.7335 32.2564 48.9281C28.3213 50.1227 24.1524 50.3282 20.1189 49.5265C16.0855 48.7248 12.3121 46.9406 9.13296 44.332C5.95387 41.7233 3.46729 38.3708 1.89354 34.5715C0.319789 30.7722 -0.292547 26.6434 0.11079 22.5508C0.514127 18.4583 1.92068 14.5284 4.20583 11.1094C6.49098 7.69043 9.58417 4.88785 13.2113 2.95001C16.8385 1.01217 20.8876 -0.00108979 25 8.79557e-07V3.125Z" fill="#FF5D24"/>
<path d="M23.4375 9.375C23.8519 9.375 24.2493 9.53962 24.5424 9.83265C24.8354 10.1257 25 10.5231 25 10.9375V27.2188L35.15 33.0188C35.4994 33.2295 35.7524 33.5685 35.8551 33.9634C35.9578 34.3583 35.9019 34.7776 35.6995 35.1319C35.4971 35.4861 35.1641 35.7471 34.7718 35.8591C34.3795 35.9711 33.9589 35.9252 33.6 35.7313L22.6625 29.4813C22.4234 29.3446 22.2246 29.1473 22.0863 28.9091C21.948 28.6709 21.8751 28.4004 21.875 28.125V10.9375C21.875 10.5231 22.0396 10.1257 22.3326 9.83265C22.6257 9.53962 23.0231 9.375 23.4375 9.375Z" fill="#FF5D24"/>
</g>
<path d="M255 1.5625C248.578 1.36029 242.339 3.71486 237.651 8.10921C232.964 12.5036 230.212 18.5785 230 25C230.212 31.4215 232.964 37.4964 237.651 41.8908C242.339 46.2851 248.578 48.6397 255 48.4375C261.422 48.6397 267.661 46.2851 272.349 41.8908C277.036 37.4964 279.788 31.4215 280 25C279.788 18.5785 277.036 12.5036 272.349 8.10921C267.661 3.71486 261.422 1.36029 255 1.5625ZM275.969 22.8125L272.125 21.875C271.344 21.6563 271.281 21.5938 271.219 21.5C270.75 20.875 270.219 20.0313 269.719 19.2188C269.719 18.9375 269.312 18.5 269.219 18.25C269.125 18 270.312 16.375 270.812 15.625C271.351 15.0646 271.973 14.5904 272.656 14.2188C274.473 16.755 275.613 19.7128 275.969 22.8125ZM255 5.46875L254.719 6C254.691 5.8977 254.691 5.7898 254.719 5.6875C254.719 5.875 254.25 6.15625 253.938 6.46875L253 7.375C252.572 7.82075 252.314 8.40156 252.268 9.01754C252.222 9.63351 252.393 10.2461 252.75 10.75H252.375C251.882 10.7643 251.398 10.8897 250.959 11.1169C250.521 11.3442 250.14 11.6674 249.844 12.0625C249.498 12.5387 249.263 13.0857 249.155 13.664C249.047 14.2423 249.069 14.8374 249.219 15.4063V15.625C248.763 15.7062 248.314 15.8211 247.875 15.9688L247.125 16.2188L245.125 16.875C244.529 17.0496 243.986 17.3694 243.544 17.8057C243.102 18.2421 242.776 18.7813 242.594 19.375C242.448 19.8732 242.429 20.3998 242.539 20.9072C242.648 21.4146 242.881 21.8868 243.219 22.2813C244.47 23.634 245.925 24.7833 247.531 25.6875C249.103 26.7348 250.884 27.4279 252.75 27.7188H258C258.632 27.6886 259.262 27.8189 259.83 28.0975C260.398 28.3762 260.887 28.7942 261.25 29.3125C261.42 29.4879 261.546 29.7013 261.616 29.9351C261.687 30.1688 261.701 30.4161 261.656 30.6563C261.594 31.0543 261.433 31.4304 261.187 31.75C259.632 33.0219 258.58 34.8051 258.219 36.7813C257.814 38.2501 257.313 39.6907 256.719 41.0938C256.344 42.0625 256 43 255.75 43.75C254.702 43.8254 253.648 43.7411 252.625 43.5C252.874 41.1782 252.323 38.8409 251.062 36.875C250.012 35.6332 249.426 34.0642 249.406 32.4375C249.608 30.8944 249.258 29.3296 248.417 28.0199C247.576 26.7102 246.3 25.7401 244.812 25.2813C241.314 23.1068 238.243 20.3108 235.75 17.0313C237.556 13.4963 240.317 10.5388 243.72 8.49483C247.123 6.45089 251.031 5.40248 255 5.46875ZM233.906 25C233.906 23.782 234.031 22.5671 234.281 21.375C236.847 24.4455 239.962 27.0102 243.469 28.9375C245.344 29.625 245.625 30.3438 245.625 32.4375C245.632 35.0496 246.587 37.5703 248.312 39.5313C248.773 40.8868 248.923 42.3287 248.75 43.75C244.574 42.6638 240.865 40.2457 238.186 36.8622C235.508 33.4787 234.005 29.3143 233.906 25ZM259.906 44C259.906 43.5313 260.281 43 260.469 42.5C261.179 40.8838 261.754 39.2114 262.188 37.5C262.432 36.4401 263.027 35.4934 263.875 34.8125C264.969 33.7374 265.606 32.2827 265.656 30.75C265.695 30.0233 265.584 29.2965 265.331 28.614C265.079 27.9316 264.69 27.3079 264.188 26.7813C263.436 25.8591 262.48 25.1248 261.395 24.6366C260.31 24.1484 259.126 23.9197 257.937 23.9688H252.969C250.635 23.3365 248.49 22.146 246.719 20.5L248.188 20L249.031 19.75C249.403 19.5799 249.811 19.5048 250.219 19.5313L250.5 20C250.734 20.4386 251.123 20.7744 251.591 20.9419C252.059 21.1095 252.572 21.0967 253.031 20.9063C253.486 20.6942 253.846 20.3215 254.042 19.86C254.238 19.3984 254.257 18.8806 254.094 18.4063V17.8438C253.75 16.9063 253.344 15.5938 253.094 14.7188C253.904 14.7528 254.709 14.5639 255.419 14.1727C256.13 13.7815 256.72 13.203 257.125 12.5C257.319 11.9764 257.369 11.4103 257.27 10.8607C257.171 10.3112 256.927 9.79812 256.562 9.375C256.93 9.04496 257.275 8.68995 257.594 8.3125C257.881 7.96927 258.09 7.56847 258.209 7.13717C258.328 6.70587 258.352 6.25414 258.281 5.8125C262.649 6.45549 266.716 8.41817 269.938 11.4375C268.992 12.015 268.156 12.7557 267.469 13.625C266.724 14.7129 266.056 15.851 265.469 17.0313C265.217 17.7597 265.153 18.5401 265.284 19.2997C265.416 20.0593 265.737 20.7733 266.219 21.375C266.781 22.3438 267.406 23.2813 267.969 24.0625C268.744 25.0397 269.861 25.6873 271.094 25.875C271.781 26.0625 274.219 26.5625 275.938 26.9063C275.385 31.0727 273.542 34.9616 270.667 38.0273C267.792 41.0929 264.029 43.1815 259.906 44Z" fill="#FF5D24"/>
<g clip-path="url(#clip1_166_524)">
<path d="M485 0C471.193 0 460 11.1929 460 25C460 38.8071 471.193 50 485 50C498.807 50 510 38.8071 510 25C510 11.1929 498.807 0 485 0ZM484.949 13.901C487.255 13.9314 489.165 15.8086 489.8 18.2007C490.042 19.1767 490.069 20.1668 489.825 21.2006C489.457 22.656 488.721 24.0776 487.349 24.9509L489.349 25.9008L494.1 28.201C494.566 28.401 494.799 28.8009 494.799 29.401V33.9998C494.799 34.9483 494.875 35.7662 493.699 36.1005H476.2C475.069 36.0843 475.022 34.9391 475.049 33.9998V29.401C475.049 28.801 475.299 28.3837 475.799 28.1503L480.699 25.9008L482.6 25C481.733 24.4333 481.05 23.6507 480.55 22.6507C479.95 21.3305 479.712 19.6168 480.149 18.0503C480.703 15.9268 482.437 14.0191 484.949 13.901ZM476.8 16.0002C477.533 16.0002 478.199 16.2175 478.799 16.6508C478.633 17.1174 478.492 17.6095 478.375 18.1263C478.258 18.6428 478.199 19.1838 478.199 19.7505C478.199 20.5838 478.316 21.3838 478.549 22.1505C478.782 22.9171 479.116 23.6178 479.549 24.2512C479.349 24.5178 479.083 24.7509 478.75 24.9509L475.049 26.6511C474.549 26.9178 474.149 27.2918 473.849 27.7752C473.549 28.2585 473.399 28.801 473.399 29.401V33.9998H469.75C469.221 33.9916 468.863 33.4581 468.849 32.9012V28.5509C468.849 28.0509 469.032 27.717 469.399 27.5503L474.949 25C473.515 24.1185 472.823 22.5252 472.75 20.751C472.775 18.5651 474.208 16.1818 476.8 16.0002ZM493.199 16.0002C495.503 16.0366 497.167 18.3207 497.25 20.751C497.237 22.3592 496.61 23.912 495.149 24.951L500.6 27.5504C500.966 27.7504 501.149 28.0842 501.149 28.5509V32.9012C501.144 33.4175 500.865 33.9472 500.25 33.9998H496.5V29.401C496.5 28.801 496.35 28.2585 496.05 27.7751C495.75 27.2918 495.35 26.9178 494.85 26.6511C493.296 25.9287 491.511 25.4101 490.349 24.2005C491.216 22.8672 491.649 21.3838 491.649 19.7505C491.649 18.7171 491.466 17.6999 491.1 16.6999C491.702 16.3023 492.415 16.0114 493.199 16.0002Z" fill="#FF5D24"/>
</g>
<path d="M715 3.125C710.443 3.13038 706.075 4.94292 702.853 8.16504C699.63 11.3872 697.818 15.7557 697.813 20.3125C697.807 24.0363 699.023 27.659 701.275 30.625C701.275 30.625 701.744 31.2422 701.82 31.3312L715 46.875L728.186 31.3234C728.255 31.2406 728.725 30.625 728.725 30.625L728.727 30.6203C730.977 27.6556 732.193 24.0346 732.188 20.3125C732.182 15.7557 730.37 11.3872 727.147 8.16504C723.925 4.94292 719.557 3.13038 715 3.125ZM715 26.5625C713.764 26.5625 712.556 26.1959 711.528 25.5092C710.5 24.8224 709.699 23.8463 709.226 22.7043C708.753 21.5622 708.629 20.3056 708.87 19.0932C709.111 17.8808 709.707 16.7672 710.581 15.8931C711.455 15.019 712.568 14.4237 713.781 14.1826C714.993 13.9414 716.25 14.0652 717.392 14.5383C718.534 15.0113 719.51 15.8124 720.197 16.8402C720.883 17.868 721.25 19.0764 721.25 20.3125C721.248 21.9695 720.589 23.558 719.417 24.7296C718.245 25.9013 716.657 26.5604 715 26.5625Z" fill="#FF5D24"/>
<defs>
<clipPath id="clip0_166_524">
<rect width="50" height="50" fill="white"/>
</clipPath>
<clipPath id="clip1_166_524">
<rect width="50" height="50" fill="white" transform="translate(460)"/>
</clipPath>
</defs>
</svg>
