<svg width="34" height="52" viewBox="0 0 34 52" fill="none" xmlns="http://www.w3.org/2000/svg">
<path d="M17 28.1766C20.1296 28.1766 22.6667 24.9667 22.6667 21.0072C22.6667 17.0477 20.1296 13.8378 17 13.8378C13.8704 13.8378 11.3333 17.0477 11.3333 21.0072C11.3333 24.9667 13.8704 28.1766 17 28.1766Z" stroke="#FF6828" stroke-width="3.75" stroke-linecap="round" stroke-linejoin="round"/>
<path d="M17 1.88889C12.9923 1.88889 9.14871 3.90313 6.31483 7.48851C3.48095 11.0739 1.88889 15.9367 1.88889 21.0072C1.88889 25.5287 2.64822 28.4872 4.72222 31.7612L17 49.6847L29.2778 31.7612C31.3518 28.4872 32.1111 25.5287 32.1111 21.0072C32.1111 15.9367 30.5191 11.0739 27.6852 7.48851C24.8513 3.90313 21.0077 1.88889 17 1.88889V1.88889Z" stroke="#FF6828" stroke-width="3.75" stroke-linecap="round" stroke-linejoin="round"/>
</svg>
