<svg width="42" height="42" viewBox="0 0 42 42" fill="none" xmlns="http://www.w3.org/2000/svg">
<path d="M0 30.974C0 32.7841 0.719038 34.52 1.99893 35.7999C3.27883 37.0798 5.01474 37.7988 6.82479 37.7988H17.146L17.8935 34.8106C18.2337 33.4499 18.9372 32.2067 19.9305 31.2155L32.3243 18.8196C33.0355 18.1071 33.8943 17.5592 34.8401 17.2145C35.786 16.8699 36.7959 16.7368 37.7988 16.8247V6.82479C37.7988 5.01474 37.0798 3.27883 35.7999 1.99893C34.52 0.719038 32.7841 0 30.974 0H16.7995V9.97469C16.7995 10.8709 16.6229 11.7584 16.28 12.5864C15.937 13.4144 15.4343 14.1668 14.8005 14.8005C14.1668 15.4343 13.4144 15.937 12.5864 16.28C11.7584 16.6229 10.8709 16.7995 9.97469 16.7995H0V30.974ZM13.6496 0.923971L0.923971 13.6496H9.97469C10.9493 13.6496 11.8841 13.2624 12.5732 12.5732C13.2624 11.8841 13.6496 10.9493 13.6496 9.97469V0.923971ZM33.8089 20.3064L21.413 32.7002C20.6908 33.4227 20.1784 34.3278 19.9305 35.3188L18.9687 39.1638C18.8731 39.5463 18.8781 39.9471 18.9835 40.3271C19.0888 40.7072 19.2908 41.0534 19.5697 41.3321C19.8487 41.6109 20.1951 41.8126 20.5751 41.9176C20.9552 42.0226 21.356 42.0274 21.7385 41.9315L25.5814 40.9718C26.5734 40.7237 27.4793 40.2105 28.2021 39.4872L40.5959 27.0934C41.4613 26.1863 41.9375 24.9768 41.9228 23.7232C41.9081 22.4697 41.4036 21.2716 40.5171 20.3852C39.6307 19.4987 38.4326 18.9942 37.1791 18.9795C35.9255 18.9648 34.716 19.441 33.8089 20.3064Z" fill="#FF5D24"/>
</svg>
