<svg width="24" height="24" viewBox="0 0 24 24" fill="none" xmlns="http://www.w3.org/2000/svg">
<path d="M12 0C13.5913 0 15.1174 0.63214 16.2426 1.75736C17.3678 2.88257 18 4.40869 18 5.99999C18 7.59129 17.3678 9.11741 16.2426 10.2426C15.1174 11.3678 13.5913 12 12 12C10.4087 12 8.88256 11.3678 7.75735 10.2426C6.63213 9.11741 5.99999 7.59129 5.99999 5.99999C5.99999 4.40869 6.63213 2.88257 7.75735 1.75736C8.88256 0.63214 10.4087 0 12 0ZM12 15C18.63 15 24 17.685 24 21V24H0V21C0 17.685 5.36999 15 12 15Z" fill="#FF6828"/>
</svg>
